<?xml version="1.0" encoding="utf-8"?>
<!-- Generator: Adobe Illustrator 24.1.1, SVG Export Plug-In . SVG Version: 6.00 Build 0)  -->
<svg version="1.1" id="Layer_1" xmlns="http://www.w3.org/2000/svg" xmlns:xlink="http://www.w3.org/1999/xlink" x="0px" y="0px"
	 viewBox="0 0 326 165" style="enable-background:new 0 0 326 165;" xml:space="preserve">
<style type="text/css">
	.st0{fill:#929497;}
	.st1{fill:#231F20;}
</style>
<g>
	<path class="st0" d="M63.38,108.03h-7.82v43.07h4.22l-0.01-10.53c0,0,0-0.34,0.21-0.56c0.19-0.2,0.62-0.31,1.23-0.31l2.17,0
		c4.26,0,8.26-1.65,11.27-4.64c3.02-2.99,4.68-6.97,4.68-11.2c0-4.24-1.66-8.21-4.68-11.2C71.65,109.67,67.64,108.03,63.38,108.03z
		 M63.39,135.49l-2.17-0.01c-0.51,0-0.99,0.04-1.44,0.13v-23.38h3.6c6.47,0,11.73,5.22,11.73,11.63
		C75.11,130.28,69.85,135.49,63.39,135.49z"/>
	<path class="st0" d="M102.59,132.57c-1.36,1.8-3.65,2.76-6.63,2.76c-4.57,0-8.5-4.12-9.35-9.83c-0.03-0.16-0.11-0.73,0.32-1.14
		c0.06-0.05,0.15-0.11,0.45-0.11h7.3c3.46,0,6.41-0.87,8.53-2.53c2.03-1.58,3.19-3.84,3.19-6.19c0-2.26-1.03-4.33-2.88-5.84
		c-1.96-1.6-4.44-2.37-7.6-2.37c-1.88,0-3.7,0.45-5.44,1.33c-1.63,0.83-3.09,2.02-4.35,3.53c-2.5,3.02-3.88,7.02-3.88,11.24
		c0,2.24,0.33,3.59,0.36,3.71c0.56,2.84,1.77,5.44,3.49,7.53c2.59,3.14,6.09,4.87,9.86,4.87c5.51,0,8.48-2.42,10.01-4.45l1.27-1.7
		l-3.39-2.5L102.59,132.57z M100.61,118.41c-1.37,1.07-3.43,1.63-5.93,1.63h-7.26c-0.06,0-0.28,0-0.56,0.03
		c1.18-4.98,4.91-8.52,9.09-8.53c4.28,0,6.23,2.08,6.23,4C102.18,116.6,101.62,117.62,100.61,118.41z"/>
	<path class="st0" d="M124.26,107.33c-3.17,0-6.14,1.31-8.37,3.7c-2.19,2.35-3.39,5.46-3.39,8.75v19.76h4.22v-19.76
		c0-4.55,3.39-8.25,7.55-8.25c4.16,0,7.55,3.7,7.55,8.25v19.76h4.22v-19.76c0-3.3-1.21-6.41-3.39-8.75
		C130.4,108.64,127.43,107.33,124.26,107.33z"/>
	<path class="st0" d="M145.87,111.82c-3.01,2.99-4.67,6.97-4.67,11.2c0,4.23,1.66,8.21,4.67,11.2c3.01,2.99,7.01,4.63,11.27,4.63
		l2.16,0c0.61,0,1.04,0.11,1.23,0.31c0.11,0.12,0.18,0.29,0.2,0.47v0.79c0,3.04-3.18,5.51-7.09,5.51c-2.54,0-4.83-1.03-6.13-2.76
		l-1.26-1.67l-3.39,2.51l1.27,1.69c2.09,2.78,5.64,4.44,9.5,4.44c2.94,0,5.73-0.96,7.85-2.71c2.23-1.85,3.45-4.33,3.45-7l0-33.24
		l-7.82,0.02C152.88,107.19,148.88,108.84,145.87,111.82z M160.73,111.39v23.37c-0.45-0.09-0.93-0.13-1.44-0.13h0l-2.16,0.01
		c-6.46,0-11.72-5.21-11.72-11.62c0-6.41,5.26-11.62,11.73-11.62L160.73,111.39z"/>
	<rect x="201.98" y="107.33" class="st0" width="4.22" height="32.22"/>
	<path class="st0" d="M204.08,100.43c-1.31,0-2.37,1.01-2.37,2.26v0.93c0,1.24,1.06,2.26,2.37,2.26c1.31,0,2.38-1.01,2.38-2.26
		v-0.93C206.46,101.44,205.39,100.43,204.08,100.43z"/>
	<path class="st0" d="M233.05,111.03c-2.23-2.39-5.2-3.7-8.37-3.7c-3.17,0-6.14,1.31-8.38,3.7c-2.19,2.35-3.39,5.46-3.39,8.75v19.76
		h4.22v-19.76c0-4.55,3.39-8.25,7.55-8.25c4.16,0,7.55,3.7,7.55,8.25v19.76h4.22v-19.76C236.44,116.49,235.24,113.38,233.05,111.03z
		"/>
</g>
<g>
	<path class="st1" d="M305.34,32.06c-0.29-0.41-0.75-0.66-1.26-0.66h-2.32c-0.64,0-1.21,0.4-1.43,0.99l-22.58,59.9l-0.2-0.76
		c-0.74-2.84-1.5-4.88-1.53-4.97l-20.39-54.16c-0.22-0.59-0.79-0.99-1.43-0.99h-2.31c-0.5,0-0.97,0.25-1.26,0.66
		c-0.29,0.41-0.35,0.94-0.17,1.41l20.7,54.9c0.01,0.03,1.01,2.71,1.77,6.07c0.99,4.37,1.13,7.24,0.44,9.34l-0.29,0.95
		c-2.71,7.71-9.35,12.69-16.91,12.69h-1.07c-0.85,0-1.53,0.69-1.53,1.53v2.12c0,0.85,0.69,1.53,1.53,1.53h1.07
		c4.85,0,9.51-1.57,13.45-4.54c3.81-2.88,6.69-6.85,8.32-11.46l27.61-73.13C305.7,33,305.63,32.47,305.34,32.06z"/>
	<path class="st1" d="M243.51,37.01c-4.37-3.61-10.16-5.6-16.29-5.6c-8.01,0-15.35,3.41-19.65,9.11l-0.72,0.95
		c-0.24,0.33-0.35,0.73-0.29,1.14c0.06,0.41,0.28,0.77,0.6,1.01l1.92,1.42c0.68,0.5,1.63,0.36,2.14-0.31l0.71-0.95
		c3.27-4.34,8.99-6.93,15.28-6.93c9.83,0,17.83,6.4,17.83,14.26l0,3.85c-0.06,1.78-0.48,2.96-1.31,3.74c-0.88,0.82-2,0.99-2.78,0.99
		l-0.26,0c-0.02,0-0.1,0-0.12,0l-14.39,0.01c-6.38,0-12.4,1.97-16.96,5.56c-4.75,3.73-7.36,8.75-7.36,14.14
		c0,5.38,2.61,10.4,7.36,14.14c4.56,3.58,10.58,5.56,16.96,5.56c6.38,0,12.4-1.97,16.96-5.56c4.74-3.73,7.36-8.75,7.36-14.14V51.1
		C250.52,45.75,248.03,40.74,243.51,37.01z M245.05,79.38c0,3.69-1.88,7.19-5.28,9.88c-3.6,2.83-8.41,4.38-13.57,4.38
		c-5.15,0-9.97-1.56-13.57-4.38c-3.41-2.68-5.29-6.19-5.29-9.88c0-3.69,1.88-7.2,5.29-9.88c3.6-2.83,8.42-4.39,13.57-4.39
		l14.36-0.01c0.53,0.03,2.26,0.05,4.15-0.71l0.35-0.14V79.38z"/>
	<path class="st1" d="M172.17,99.11h5.39l0.01-41.99c0-6.83-2.51-13.28-7.07-18.15c-4.56-4.88-10.65-7.56-17.16-7.56
		c-6.51,0-12.62,2.7-17.2,7.6c-1.62,1.73-2.99,3.69-4.08,5.8l-0.23,0.44l-0.23-0.44c-1.09-2.12-2.46-4.07-4.08-5.8
		c-4.58-4.9-10.69-7.6-17.2-7.6c-6.51,0-12.62,2.7-17.2,7.6c-4.53,4.85-7.03,11.28-7.03,18.11l0,17.11
		c-0.29,4.4-2.84,18.8-23.62,19.4c-10.86-0.34-20.17-10.14-22.16-23.41c-0.13-0.62-0.41-2.77,1.3-4.36c0.72-0.68,1.63-0.78,2.1-0.78
		l16.5,0c7.26,0,13.41-1.8,17.78-5.2c4.03-3.14,6.34-7.59,6.34-12.19c0-4.4-2.02-8.48-5.69-11.47c-3.99-3.25-9.12-4.82-15.68-4.82
		c-3.86,0-7.63,0.92-11.2,2.74c-3.4,1.74-6.46,4.21-9.07,7.36c-5.28,6.36-8.19,14.79-8.19,23.73c0,4.95,0.74,7.76,0.76,7.87
		c1.18,5.98,3.73,11.46,7.37,15.86c4.99,6.04,11.67,9.6,18.84,10.05c0.17,0.06,0.34,0.09,0.52,0.08c0.17,0,0.34-0.01,0.5-0.02
		l0.33-0.01l0.23,0.01c3.84,0,7.36-0.56,10.46-1.67c0.1-0.03,0.19-0.08,0.27-0.13c14.69-4.77,17.29-17.47,17.72-22.74
		c0-0.02,0-0.04,0-0.06c0.06-0.67,0.07-1.22,0.08-1.63c0.05-4.7-0.06-7.83-0.06-7.86c0-0.05-0.01-0.09-0.01-0.13v-7.74
		c0-11.19,8.43-20.3,18.79-20.3c10.36,0,18.79,9.11,18.79,20.3v40.42c0,0.84,0.69,1.53,1.53,1.53h2.38c0.85,0,1.53-0.69,1.53-1.53
		V57.12c0-11.19,8.43-20.3,18.79-20.3s18.79,9.11,18.79,20.3L172.17,99.11z M40.37,59.94c2.06-13.38,11.6-23.09,22.69-23.11
		C73.94,36.84,78.9,42.47,78.9,47.7c0,2.97-1.51,5.79-4.26,7.93c-3.4,2.65-8.39,4.05-14.42,4.05H44.06c-0.2,0-1.96,0.01-3.36,0.52
		l-0.4,0.15L40.37,59.94z"/>
	<path class="st1" d="M192.19,3.81c-2.18,0-7.65,1.67-7.65,12.89c0,5.26,3.48,11.89,4.91,16.61l0.05,95.48
		c0,3.33-2.68,6.04-5.97,6.04c-3.29,0-5.97-2.71-5.97-6.04V107.1h-5.39v21.68c0,6.3,5.1,11.43,11.36,11.43
		c6.26,0,11.36-5.13,11.36-11.43l0.01-95.39c1.44-4.74,4.81-11.4,4.81-16.69C199.71,5.48,194.37,3.81,192.19,3.81z M195.23,17.6
		c-0.32,2.62-1.32,5.75-3.04,8.67c-1.72-2.92-2.78-6.04-3.04-8.67c-0.49-4.93,1.53-7.93,3.04-7.93
		C193.9,9.67,195.82,12.82,195.23,17.6z"/>
</g>
</svg>
