<?xml version="1.0" encoding="utf-8"?>
<!-- Generator: Adobe Illustrator 24.1.1, SVG Export Plug-In . SVG Version: 6.00 Build 0)  -->
<svg version="1.1" xmlns="http://www.w3.org/2000/svg" xmlns:xlink="http://www.w3.org/1999/xlink" x="0px" y="0px"
	 viewBox="0 0 199.975 59.992" enable-background="new 0 0 199.975 59.992" xml:space="preserve">
<g id="Layer_1">
	<g id="Layer_3">
		<rect x="0" y="0" fill="#F0F4FC" width="199.975" height="59.992"/>
		<g>
			<path fill="#3B628D" d="M85.244,48.746c-2.198-1.259-3.898-3.04-5.101-5.342s-1.804-4.968-1.804-7.999V23.697
				c0-3.031,0.601-5.698,1.804-8s2.903-4.083,5.101-5.342c2.197-1.26,4.736-1.89,7.616-1.89c2.879,0,5.417,0.63,7.616,1.89
				c2.197,1.26,3.897,3.041,5.101,5.342s1.805,4.968,1.805,8v11.708c0,3.031-0.602,5.697-1.805,7.999s-2.903,4.083-5.101,5.342
				c-2.198,1.261-4.736,1.89-7.616,1.89C89.98,50.636,87.442,50.007,85.244,48.746z M97.364,43.773
				c1.297-0.768,2.302-1.856,3.012-3.268s1.065-3.045,1.065-4.902V23.498c0-1.856-0.355-3.49-1.065-4.902
				c-0.71-1.411-1.715-2.5-3.012-3.268c-1.298-0.767-2.799-1.151-4.504-1.151s-3.207,0.384-4.504,1.151
				c-1.298,0.768-2.302,1.857-3.012,3.268c-0.71,1.412-1.065,3.045-1.065,4.902v12.105c0,1.857,0.355,3.491,1.065,4.902
				s1.714,2.5,3.012,3.268c1.297,0.768,2.799,1.151,4.504,1.151S96.066,44.541,97.364,43.773z"/>
			<path fill="#3B628D" d="M117.988,50.21h-5.797V8.892h5.797V50.21z"/>
			<path fill="#3B628D" d="M152.912,8.892h5.428V50.21h-5.655V19.264l0.284,1.818L142.796,44.47h-4.035l-10.174-22.819l0.284-2.387
				V50.21h-5.654V8.892h5.428l12.134,27.28L152.912,8.892z"/>
			<path fill="#3B628D" d="M170.333,50.068c-1.78-0.379-3.443-0.947-4.987-1.705s-2.988-1.705-4.333-2.842l3.608-4.434
				c1.572,1.364,3.306,2.388,5.201,3.069c1.894,0.682,3.949,1.023,6.166,1.023c2.993,0,5.313-0.555,6.962-1.663
				s2.473-2.676,2.473-4.703v-0.028c0-1.439-0.374-2.581-1.123-3.424c-0.748-0.843-1.715-1.468-2.898-1.876
				c-1.184-0.407-2.714-0.781-4.589-1.122c-0.057-0.019-0.119-0.028-0.185-0.028c-0.067,0-0.128-0.01-0.185-0.028l-0.427-0.086
				c-2.767-0.473-5.016-1.009-6.749-1.605s-3.216-1.686-4.447-3.268c-1.231-1.582-1.847-3.832-1.847-6.749v-0.028
				c0-2.558,0.572-4.741,1.719-6.55c1.146-1.809,2.818-3.187,5.016-4.134s4.84-1.421,7.929-1.421c1.478,0,2.931,0.161,4.361,0.483
				c1.431,0.322,2.842,0.801,4.234,1.435c1.393,0.635,2.761,1.435,4.106,2.401l-3.297,4.604c-1.572-1.155-3.14-2.022-4.702-2.6
				c-1.563-0.578-3.131-0.867-4.703-0.867c-2.823,0-5.016,0.563-6.579,1.69c-1.563,1.127-2.344,2.724-2.344,4.789v0.028
				c0,1.421,0.402,2.539,1.207,3.353c0.806,0.815,1.81,1.417,3.013,1.805s2.874,0.791,5.016,1.208
				c0.075,0.019,0.146,0.033,0.213,0.042c0.066,0.01,0.138,0.024,0.213,0.043c0.095,0.019,0.199,0.038,0.313,0.057
				c0.114,0.019,0.218,0.038,0.313,0.057c2.501,0.511,4.59,1.118,6.267,1.818c1.677,0.702,3.078,1.833,4.205,3.396
				c1.127,1.563,1.691,3.699,1.691,6.408v0.057c0,2.52-0.597,4.675-1.79,6.465c-1.194,1.79-2.923,3.154-5.187,4.092
				s-4.997,1.406-8.198,1.406C173.999,50.636,172.115,50.446,170.333,50.068z"/>
		</g>
		<polygon fill="#3B628D" points="4.952,0 76.821,0 61.384,59.992 4.952,59.992 		"/>
	</g>
	<g>
		<circle fill="#F0F4FC" cx="36.404" cy="30.079" r="28.417"/>
		<path fill="#3B628D" d="M44.302,52.796c0.545-0.007,1.089-0.018,1.634-0.053c2.46-0.156,4.814-0.712,7.023-1.823
			c1.93-0.971,3.593-2.261,4.769-4.11c0.585-0.921,0.975-1.921,1.166-2.997c0.031-0.171,0.058-0.345-0.098-0.459
			c-0.155-0.113-0.319-0.038-0.47,0.042c-0.049,0.026-0.097,0.055-0.146,0.082c-1.251,0.674-2.553,1.204-3.964,1.437
			c-2.19,0.362-4.356,0.146-6.517-0.246c-1.438-0.261-2.853-0.617-4.258-1.016c-1.304-0.371-2.613-0.729-3.913-1.112
			c-2.625-0.774-5.257-1.503-8.012-1.659c-3.204-0.182-6.295,0.206-9.233,1.6c-0.944,0.448-1.855,0.932-2.698,1.54
			c-1.625,1.17-2.923,2.628-3.802,4.44c-0.08,0.165-0.159,0.334-0.022,0.499c0.128,0.154,0.304,0.144,0.49,0.125
			c1.449-0.144,2.897-0.308,4.355-0.352c2.793-0.085,5.524,0.348,8.218,1.026c2.334,0.588,4.648,1.26,6.98,1.858
			C38.588,52.329,41.413,52.802,44.302,52.796z"/>
		<path fill="#94EDFB" d="M44.899,50.21c0.595-0.007,1.189-0.02,1.783-0.058c2.684-0.171,5.254-0.776,7.664-1.99
			c2.108-1.06,3.922-2.468,5.205-4.486c0.639-1.005,1.064-2.096,1.273-3.271c0.033-0.187,0.063-0.377-0.107-0.501
			c-0.17-0.124-0.348-0.042-0.513,0.046c-0.054,0.028-0.106,0.06-0.159,0.089c-1.365,0.736-2.786,1.313-4.327,1.568
			c-2.39,0.395-4.754,0.159-7.113-0.269c-1.57-0.285-3.114-0.673-4.648-1.109c-1.424-0.405-2.852-0.796-4.271-1.215
			c-2.865-0.845-5.737-1.64-8.744-1.81c-3.497-0.198-6.87,0.225-10.077,1.746c-1.031,0.489-2.025,1.018-2.945,1.68
			c-1.773,1.278-3.189,2.869-4.149,4.847c-0.087,0.18-0.174,0.364-0.024,0.544c0.139,0.168,0.332,0.157,0.535,0.136
			c1.582-0.157,3.162-0.336,4.753-0.384c3.049-0.093,6.028,0.379,8.968,1.12c2.548,0.642,5.073,1.375,7.618,2.027
			C38.662,49.7,41.746,50.217,44.899,50.21z"/>
		<g>
			<path fill="#FDBC01" d="M57.518,23.508c-0.001-1.29,0.007-2.581-0.006-3.872c-0.003-0.299,0.071-0.436,0.398-0.413
				c0.38,0.026,0.764-0.003,1.145,0.01c0.712,0.025,1.254,0.551,1.258,1.26c0.012,2.028,0.012,4.056-0.001,6.084
				c-0.004,0.719-0.563,1.258-1.288,1.285c-0.368,0.014-0.739-0.013-1.106,0.007c-0.316,0.018-0.408-0.106-0.405-0.413
				C57.526,26.142,57.519,24.825,57.518,23.508z"/>
			<path fill="#FDBC01" d="M24.161,34.373c0,0-0.152-0.398-0.145-0.856c0.009-0.593,0.009-2.533-0.016-3.127
				c-0.009-0.192-0.011-0.319-0.264-0.365c-0.286-0.053-0.461-0.256-0.444-0.593c0.02-0.421,0.01-0.843,0.003-1.264
				c-0.004-0.219,0.09-0.31,0.308-0.305c0.382,0.009,0.764,0.01,1.146,0.007c0.204-0.001,0.284,0.099,0.284,0.291
				c-0.002,0.448-0.004,0.896-0.002,1.344c0.001,0.3-0.201,0.451-0.44,0.517c-0.232,0.063-0.26,0.191-0.265,0.392
				c-0.014,0.587-0.032,2.518-0.051,3.105C24.259,33.971,24.161,34.373,24.161,34.373z"/>
			<path fill="#FDBC01" d="M52.788,26.832c-0.017,1.659-1.433,3.055-3.076,3.033c-1.739-0.023-3.111-1.418-3.09-3.141
				c0.021-1.683,1.437-3.081,3.098-3.057C51.448,23.692,52.807,25.093,52.788,26.832z"/>
			<path fill="#3B628D" d="M56.235,16.463c-0.093-0.001-0.184,0-0.277,0c-4.165,0-8.329,0-12.494,0c0,0.009,0,0.017,0,0.026
				c-4.322,0-8.643,0.001-12.965-0.003c-0.255,0-0.462-0.112-0.494-0.402c-0.032-0.294,0.135-0.44,0.404-0.484
				c0.103-0.017,0.21-0.01,0.316-0.01c8.406,0,16.813,0.001,25.219,0.001c0.021,0,0.042-0.001,0.063-0.002
				c0.097-0.004,0.214,0.008,0.257-0.107c0.045-0.123-0.043-0.194-0.127-0.261c-0.338-0.27-0.755-0.422-1.187-0.433
				c-0.348-0.009-0.696-0.011-1.044-0.001c-0.278,0.008-0.37-0.117-0.315-0.469c0.046-0.297,0.027-0.598-0.009-0.896
				c-0.023-0.185,0.085-0.461-0.246-0.455c-0.335,0.007-0.199,0.295-0.231,0.46c-0.047,0.239-0.072,0.482-0.027,0.722
				c0.12,0.636-0.045,0.709-0.757,0.602c-0.928-0.14-1.871-0.134-2.798,0.011c-0.709,0.112-0.768-0.065-0.681-0.653
				c0.032-0.214,0.017-0.431-0.017-0.644c-0.033-0.201,0.066-0.479-0.24-0.494c-0.242-0.012-0.238,0.149-0.238,0.314
				c0.001,0.198,0.001,0.395-0.002,0.593c-0.017,1.016,0.155,0.913-0.914,0.912c-6.471-0.003-12.942-0.001-19.413-0.001
				c-0.53,0-0.531,0.001-0.531,0.552c0,3.493,0,6.985,0,10.478c0,0.132-0.002,0.264-0.006,0.395c-0.004,0.128-0.077,0.19-0.2,0.195
				c-0.129,0.005-0.244-0.026-0.261-0.177c-0.014-0.13-0.01-0.263-0.01-0.395c0-3.519-0.005-7.037,0.007-10.556
				c0.001-0.37-0.085-0.504-0.478-0.5c-2.069,0.017-4.138,0.006-6.208,0.009c-1.31,0.002-2.162,0.843-2.154,2.146
				c0.008,1.384,0.059,2.767,0.05,4.15c-0.009,1.481,0.429,2.883,0.763,4.295c0.159,0.671,0.38,1.365,0.718,2.004
				c0.169,0.32,0.36,0.45,0.69,0.449c0.607-0.001,1.212,0.001,1.819,0.001c0.574-0.001,0.587-0.001,0.579-0.581
				c-0.004-0.28,0.061-0.402,0.372-0.391c0.619,0.023,1.239,0.005,1.858,0.005c0.31,0,0.544,0.038,0.441,0.468
				c-0.036,0.152-0.008,0.426,0.228,0.485c0.355,0.089,0.369-0.154,0.369-0.42c-0.004-3.676-0.001-7.353-0.001-11.029
				c0-0.119-0.004-0.238,0.009-0.355c0.017-0.155,0.144-0.176,0.263-0.176c0.115,0,0.201,0.057,0.2,0.192
				c-0.001,0.119,0.003,0.237,0.003,0.356c0.001,3.493,0.001,6.985,0.001,10.478c0,0.971,0.001,0.946,0.985,0.98
				c0.53,0.019,0.843-0.21,1.064-0.648c0.222-0.439,0.343-0.91,0.47-1.381c0.367-1.355,1.602-2.378,2.96-2.387
				c2.622-0.018,5.245-0.02,7.868,0.002c1.357,0.012,2.447,1.07,2.461,2.393c0.024,2.174,0.02,4.349,0,6.523
				c-0.009,1.095-0.778,2.015-1.834,2.309c-0.351,0.098-0.706,0.08-1.06,0.08c-7.196,0.001-14.392,0.004-21.588-0.009
				c-0.576-0.001-1.078,0.118-1.506,0.502c-0.122,0.109-0.317,0.209-0.233,0.412c0.073,0.176,0.271,0.135,0.421,0.135
				c2.424-0.003,4.849-0.015,7.273-0.016c5.997-0.003,11.993-0.001,17.99,0.001c0.13,0,0.268-0.001,0.391,0.034
				c0.209,0.061,0.343,0.21,0.321,0.439c-0.022,0.239-0.161,0.383-0.411,0.396c-0.092,0.005-0.184,0.003-0.277,0.003
				c-5.627,0-11.255,0.001-16.883,0.001c-2.86,0-5.72-0.001-8.58,0c-0.498,0-0.68,0.139-0.683,0.557
				c-0.007,1.054,0.007,5.219,0.007,5.219l8.145-0.007c0,0,11.234,3.414,19.43,3.414s13.72-3.438,13.72-3.438l-0.127-0.001
				c0,0,0.039-17.154,0.039-25.259C56.902,16.477,56.894,16.469,56.235,16.463z M49.637,23.088c2.057,0.005,3.733,1.63,3.722,3.609
				c-0.011,2.053-1.625,3.719-3.612,3.727c-2.045,0.008-3.701-1.64-3.696-3.677C46.057,24.739,47.68,23.083,49.637,23.088z
				 M54.037,39.283c-0.023,0.838-0.568,1.373-1.408,1.378c-0.975,0.005-1.95,0.001-2.925,0.001c-0.601,0-1.203-0.009-1.804-0.009
				c-0.361,0-0.721,0.004-1.082,0.016c-0.959,0.031-1.428-0.667-1.444-1.406c-0.007-0.33,0.016-0.66-0.006-0.988
				c-0.023-0.335,0.114-0.426,0.437-0.424c2.068,0.01,4.137,0.004,6.205,0.003c0.553,0,1.107,0.008,1.66-0.005
				c0.272-0.007,0.383,0.093,0.372,0.368C54.028,38.571,54.047,38.927,54.037,39.283z"/>
		</g>
	</g>
</g>
<g id="Layer_2" display="none">
	<path display="inline" fill="#3B628D" d="M146.912,8.892h5.428V50.21h-5.655V19.264l0.284,1.818L136.796,44.47h-4.035
		l-10.174-22.819l0.284-2.387V50.21h-5.654V8.892h5.428l10.997,24.724l2.277-0.007L146.912,8.892z"/>
	<path display="inline" fill="#2192A3" d="M137.069,28.955c0.457,1.538,1.007,3.073,0.131,4.649
		c-0.451,0.001-0.901,0.003-1.352,0.004c-0.736,0.002-1.471,0.005-2.207,0.007c-0.525,0.002-1.05,0.003-1.574,0.005
		c-0.696-0.589-1.553-0.782-2.411-0.968c-0.516-0.683-0.797-0.222-1.03,0.235c-0.298,0.584-0.552,1.191-0.825,1.788
		c-1.375,1.23-2.75,2.46-4.123,3.689c-0.359-0.089-0.719-0.177-1.079-0.266c0.489-1.603,1.563-2.918,2.201-4.448
		c0.73-1.143,1.479-2.273,2.183-3.431c0.575-0.946,1.359-1.328,2.478-1.283c1.095,0.043,2.043,0.255,3.27,0.242
		C134.177,29.095,135.644,29.423,137.069,28.955z"/>
	<path display="inline" fill="#3B628D" d="M137.069,28.955c-1.425,0.468-2.892,0.14-4.337,0.223
		c-0.234-0.468-0.268-0.979-0.291-1.494c-1.818,0.612-3.564,0.177-5.309-0.212c-0.278-0.205-0.183-0.469-0.11-0.729
		c1.095-0.109,2.19-0.229,3.286-0.323c0.416-0.036,0.821-0.043,0.965-0.54c0.285-0.979,0.741-1.91,0.829-2.945
		c0.551-0.547,1.232-0.823,1.986-0.944c0.653,0.606,1.195,0.097,1.76-0.176c1.75,0.216,2.138,0.552,2.404,2.128
		c0.109,0.646,0.184,1.297,0.274,1.946c-0.039,0.788,0.268,1.704-1.022,1.904C137.111,27.854,137.399,28.62,137.069,28.955z
		 M134.796,27.757c0.547,0.174,1.088,0.371,1.644,0.51c0.223,0.056,0.551,0.123,0.645-0.219c0.1-0.366-0.224-0.382-0.456-0.471
		C136.037,27.349,135.446,27.358,134.796,27.757z M134.096,26.175c0.839,0.28,1.459-0.091,2.107-0.166
		c0.324-0.038,0.575-0.421,0.373-0.767c-0.219-0.375-0.404,0.025-0.608,0.119C135.408,25.619,134.839,25.854,134.096,26.175z
		 M131.94,26.314c0.252,0.62,0.644,0.793,1.158,0.576c0.34-0.143,0.382-0.513,0.217-0.732
		C132.791,25.467,132.488,26.707,131.94,26.314z M134.254,27.349c0.029-0.015,0.058-0.031,0.087-0.046
		c-0.025-0.02-0.049-0.055-0.076-0.057c-0.027-0.002-0.058,0.027-0.087,0.042C134.203,27.308,134.228,27.329,134.254,27.349z"/>
	<path display="inline" fill="#32133B" d="M134.089,21.991c-0.754,0.121-1.435,0.397-1.986,0.944
		c-0.603-0.374-0.645-0.97-0.57-1.572c0.198-1.599,0.863-3.005,2.047-4.089c0.744-0.681,1.72-0.408,2.598-0.222
		c0.928,0.196,1.277,1.021,1.223,1.772c-0.111,1.54,0.326,2.757,1.325,3.934c0.783,0.923,0.695,2.068-0.008,3.102
		c-0.065-0.003-0.129,0.007-0.191,0.029c-0.09-0.649-0.165-1.3-0.274-1.946c-0.266-1.576-0.655-1.913-2.404-2.128
		c-0.224-1.009,0.552-2.4-1.118-2.862c-0.327-0.091-0.289-0.837-0.766-0.606c-0.35,0.17-0.44,0.666-0.47,1.078
		c-0.042,0.581-0.128,1.203,0.472,1.578C134.444,21.304,134.089,21.659,134.089,21.991z"/>
	<path display="inline" fill="#F6AA74" d="M127.021,26.743c-0.072,0.26-0.167,0.524,0.11,0.729c-0.469,0.496-1.022,0.56-1.635,0.326
		c0.004-0.104,0.007-0.208,0.011-0.313c0.213-0.132,0.597-0.25,0.609-0.398C126.184,26.26,126.643,26.641,127.021,26.743z"/>
	<path display="inline" fill="#2192A3" d="M129.788,39.247c-0.953-1.093-1.161-2.501-1.621-3.803
		c0.725-0.745,1.385-1.528,1.495-2.623c0.146,0.285,0.292,0.571,0.437,0.856c0.239,1.514,0.473,3.029,0.721,4.542
		c0.037,0.224,0.096,0.429-0.116,0.594C130.399,38.957,130.093,39.102,129.788,39.247z"/>
	<path display="inline" fill="#2AACBE" d="M129.662,32.821c-0.11,1.095-0.77,1.877-1.495,2.623
		c-0.122-0.256-0.244-0.512-0.366-0.768c0.273-0.597,0.527-1.204,0.825-1.788c0.233-0.457,0.514-0.918,1.03-0.235
		C129.714,32.705,129.716,32.762,129.662,32.821z"/>
	<path display="inline" fill="#F6AA74" d="M129.788,39.247c0.305-0.145,0.611-0.29,0.916-0.435
		c-0.014,0.676,0.342,1.118,0.907,1.428c-0.329,0.667-0.593,1.391-1.429,1.61C130.435,40.925,129.875,40.121,129.788,39.247z"/>
	<path display="inline" fill="#2AACBE" d="M130.182,41.851c0.836-0.219,1.1-0.943,1.429-1.61c0.325,0.049,0.686,0.229,0.423,0.547
		c-0.67,0.812-1.254,1.754-2.41,2.261C129.647,42.431,129.978,42.172,130.182,41.851z"/>
	<path display="inline" fill="#2AACBE" d="M121.221,39.234l-1.035-0.09c0,0-0.382,0.124-0.241,0.343
		c0.141,0.219,0.899,0.38,0.899,0.38c0.65,0.089,1.305,0.15,1.959,0.19c0.438,0.027,0.565-0.25,0.515-0.641
		C122.62,39.357,121.884,39.71,121.221,39.234"/>
	<path display="inline" fill="#F6AA74" d="M121.221,39.234c0.423-0.422,1.046-0.603,1.378-1.135c0.36,0.088,0.72,0.177,1.079,0.266
		c-0.312,0.286-0.379,0.653-0.359,1.05C122.62,39.357,121.884,39.71,121.221,39.234"/>
	<path display="inline" fill="#F6AA74" d="M134.089,21.991c0-0.332,0.355-0.687-0.123-0.987c-0.6-0.376-0.514-0.997-0.472-1.578
		c0.03-0.412,0.12-0.908,0.47-1.078c0.477-0.231,0.439,0.515,0.766,0.606c1.669,0.462,0.894,1.853,1.118,2.862
		C135.283,22.088,134.742,22.597,134.089,21.991z"/>
	<path display="inline" fill="#313873" d="M134.796,27.757c0.65-0.399,1.241-0.408,1.833-0.18c0.232,0.089,0.556,0.105,0.456,0.471
		c-0.094,0.342-0.423,0.275-0.645,0.219C135.884,28.128,135.343,27.931,134.796,27.757z"/>
	<path display="inline" fill="#3B628D" d="M134.096,26.175c0.743-0.321,1.312-0.556,1.871-0.814c0.204-0.094,0.39-0.494,0.608-0.119
		c0.202,0.346-0.049,0.73-0.373,0.767C135.555,26.084,134.935,26.455,134.096,26.175z"/>
	<path display="inline" fill="#3B628D" d="M131.94,26.314c0.548,0.393,0.851-0.847,1.374-0.156c0.165,0.218,0.123,0.588-0.217,0.732
		C132.584,27.107,132.192,26.934,131.94,26.314z"/>
	<path display="inline" fill="#313873" d="M134.254,27.349c-0.025-0.02-0.05-0.041-0.075-0.061c0.029-0.015,0.059-0.044,0.087-0.042
		c0.027,0.002,0.051,0.037,0.076,0.057C134.312,27.319,134.283,27.334,134.254,27.349z"/>
	<g display="inline">
		<polyline fill="#94EDFB" points="133.249,29.191 127.68,29.106 124.287,24.012 128.768,24.012 131.637,28.369 134.657,28.369 
			133.249,29.191 127.68,29.106 		"/>
		
			<ellipse transform="matrix(0.8836 -0.4682 0.4682 0.8836 2.4388 63.0438)" fill="#3B628D" cx="128.04" cy="26.616" rx="0.656" ry="1.062"/>
	</g>
	<path display="inline" fill="#F6AA74" d="M133.157,28.369l-0.241,0.234c0,0-0.268,0.312,0,0.33
		c0.268,0.018,0.733,0.024,0.903-0.075c0.17-0.099,0.691-0.132,0.698-0.407c0.006-0.276,0.14-0.522,0.14-0.522
		s-0.506-0.043-0.561-0.059s-1.299,0.059-1.299,0.059l0.226,0.273L133.157,28.369L133.157,28.369z"/>
	<path display="inline" fill="#313873" d="M134.341,27.303l0.316,0.625c0,0-0.214-0.05,0.536-0.625s1.437-0.832,1.455-1.025
		s-2.307,0.53-2.307,0.53s-0.325,0.464-0.163,0.479C134.341,27.303,134.341,27.303,134.341,27.303L134.341,27.303"/>
</g>
<g id="Layer_6" display="none">
	<path display="inline" fill="#2192A3" d="M148.247,41.608c-0.747,0.467-0.845,1.292-1.117,2.021
		c-0.18,2.239-0.354,4.478-0.552,6.715c-0.02,0.226-0.169,0.45-0.293,0.654c-0.971,1.608-1.178,3.355-0.96,5.181
		c0.244,0.07,0.488,0.139,0.732,0.209c0.857-3.227,2.931-5.942,3.856-9.139c0.061-0.21,0.157-0.319,0.385-0.25
		c-0.268-0.885,0.287-1.526,0.678-2.247c-0.432,1.107,0.189,2.168,0.047,3.245c0.239,0.91,0.754,1.688,1.203,2.497
		c0.235,0.424,0.465,0.817,0.471,1.345c0.019,1.639,0.626,3.051,1.804,4.207c0.273,0.241,0.586,0.357,0.953,0.31
		c-0.182-0.79-0.356-1.582-0.548-2.369c-0.599-2.461-0.481-5.051-1.381-7.463c-0.334-0.895-0.522-1.844-0.776-2.769
		c-0.008-0.07-0.016-0.14-0.025-0.211c-0.507-0.071-1.026-0.099-1.52-0.222C150.063,43.035,148.877,42.792,148.247,41.608z"/>
	<path display="inline" fill="#313873" d="M146.059,56.388c-0.244-0.07-0.488-0.139-0.732-0.209
		c-0.136,0.344-0.369,0.657-0.35,1.052c0.792,0.453,1.639,0.164,2.464,0.184C147.038,56.996,146.283,57.047,146.059,56.388z"/>
	<path display="inline" fill="#32133B" d="M157.5,47.274c0.886-1.073,1.831-1.499,3.251-0.783c0.679,0.342,1.53-0.372,2.367-0.521
		c-0.789-0.381-1.295-1.319-2.46-0.879c-0.99,0.374-1.851-0.185-2.604-1.456c-0.009-0.078-0.018-0.156-0.027-0.233
		c-0.036-0.671,0.193-1.26,0.557-1.808c1.184-0.822,1.9-0.839,3.001-0.071c-0.043,0.452-0.084,0.903,0.555,0.964
		c0.341,0.326-0.241,0.982,0.427,1.191c0.913,0.755,2.031,1.145,3.066,1.676c0.349,0.179,0.758-0.054,1.098-0.261
		c0.845-0.087,1.688-0.22,2.535-0.248c0.903-0.029,1.722,0.253,2.591,0.925c-1.464,0.307-2.718,0.48-3.987,0.899
		c0.472,0.792,1.131,1.339,1.663,1.987c-1.311-0.004-2.341-0.781-3.476-1.266c-0.311-0.133-0.59-0.282-0.953-0.196
		c-0.969,0.229-1.944,0.429-2.916,0.644c-0.373,0.083-0.582,0.227-0.648,0.697c-0.139,0.988-0.848,1.637-1.721,1.77
		c-0.979,0.149-1.646-0.205-2.242-1.188C157.57,48.503,157.892,47.874,157.5,47.274z M161.291,43.574
		c0.137-0.324,0.28-0.648-0.017-0.965c-0.091-0.26-0.222-0.487-0.512-0.572c-0.739-0.466-1.287-0.273-1.673,0.481
		c-0.281,0.424-0.253,0.835,0.049,1.236c0.81,0.815,1.345,0.807,2.014-0.03l-0.01-0.002
		C161.258,43.739,161.287,43.67,161.291,43.574z M160.739,48.263c0.015-0.692-0.547-1.254-1.265-1.264
		c-0.749-0.01-1.246,0.489-1.246,1.252c0,0.669,0.533,1.23,1.185,1.246C160.084,49.514,160.724,48.918,160.739,48.263z"/>
	<path display="inline" fill="#313873" d="M154.504,56.046c0.074,0.517-0.084,0.97-0.383,1.385c0.82-0.064,1.672,0.264,2.461-0.193
		c-0.433-0.221-0.936-0.353-1.126-0.882C155.09,56.403,154.777,56.287,154.504,56.046z"/>
	<path display="inline" fill="#3B628D" d="M148.247,41.608c0.629,1.184,1.815,1.427,2.96,1.713c0.494,0.124,1.012,0.151,1.52,0.222
		c0.083-0.005,0.166-0.01,0.249-0.016c0.347-0.46,0.693-0.92,1.039-1.38c0.075-0.508-0.305-1.093,0.256-1.519
		c1.569-0.481,1.909-0.327,1.935,0.877c0.128-0.055,0.257-0.109,0.385-0.164c0.278-0.525,0.855-0.704,1.259-1.083
		c-0.442-0.484-0.249-1.074-0.272-1.628c-0.844,0.072-0.834-0.666-1.093-1.149c-0.395-0.286-0.847-0.36-1.321-0.351
		C152.35,37.841,150.229,39.617,148.247,41.608z"/>
	<path display="inline" fill="#32133B" d="M155.164,37.132c0.474-0.01,0.926,0.064,1.321,0.351c0.343-0.339,0.724-0.646,0.847-1.154
		c0.042-0.173,0.225-0.403,0.386-0.274c0.699,0.56,1.148-0.19,1.696-0.314c0.252,0.443-0.177,0.785-0.088,1.177
		c0.759-0.676,0.728-1.815-0.079-2.682c-0.122-0.132-0.333-0.219-0.389-0.369c-0.209-0.567-0.512-0.803-1.17-0.671
		c-0.706,0.142-1.167,0.46-1.365,1.147c-0.025,0.087-0.063,0.182-0.05,0.267C156.438,35.686,156.048,36.516,155.164,37.132z"/>
	<path display="inline" fill="#F6AA74" d="M159.327,36.917c-0.09-0.392,0.34-0.734,0.088-1.177
		c-0.548,0.124-0.998,0.874-1.696,0.314c-0.161-0.129-0.344,0.102-0.386,0.274c-0.123,0.509-0.504,0.815-0.847,1.154
		c0.259,0.483,0.248,1.221,1.093,1.149c0.121-0.268,0.174-0.579,0.469-0.738C158.673,37.828,159.035,37.419,159.327,36.917z"/>
	<path display="inline" fill="#F6AA74" d="M157.85,40.259c-0.404,0.379-0.981,0.558-1.259,1.083c0.38,0.756,0.697,1.554,1.436,2.061
		c-0.036-0.671,0.193-1.261,0.557-1.809c-0.247-0.317-0.415-0.664-0.404-1.078C158.07,40.43,157.96,40.345,157.85,40.259z"/>
	<path display="inline" fill="#32133B" d="M157.85,40.259c0.11,0.085,0.22,0.171,0.33,0.256c0.721-1.465,0.7-1.881-0.133-2.621
		c-0.295,0.159-0.348,0.47-0.469,0.738C157.601,39.185,157.408,39.775,157.85,40.259z"/>
	<path display="inline" fill="#F6AA74" d="M161.584,41.523c-0.043,0.452-0.084,0.903,0.555,0.964
		C162.311,41.961,162.336,41.519,161.584,41.523z"/>
	<path display="inline" fill="#1BBCDD" d="M150.3,46.999c0.215,0.353,0.243,0.84,0.726,0.998c0.142-1.077-0.48-2.138-0.048-3.245
		C150.587,45.472,150.033,46.114,150.3,46.999z"/>
	<path display="inline" fill="#F6AA74" d="M156.207,41.506c-0.026-1.204-0.366-1.358-1.935-0.877
		c0.065,0.482,0.13,0.964,0.196,1.447c0.011,0.534,0.313,1.029,0.206,1.578c0.423,1.246,1.171,2.305,1.93,3.359
		c0.2,0.278,0.343,0.577,0.301,0.931c-0.067,0.559,0.188,0.93,0.672,1.174c-0.007-0.615,0.315-1.244-0.076-1.843
		c-0.43-1.213-0.861-2.426-1.292-3.638C155.856,42.926,156.09,42.216,156.207,41.506z"/>
	<path display="inline" fill="#F6AA74" d="M159.089,42.519c-0.281,0.424-0.253,0.835,0.049,1.236
		c0.265-0.081,0.588,0.074,0.805-0.198c0.349-0.448,0.927-0.575,1.332-0.945c-0.093-0.261-0.224-0.488-0.513-0.573
		C160.183,42.124,159.702,42.551,159.089,42.519z"/>
	<path display="inline" fill="#313873" d="M154.272,40.629c-0.562,0.426-0.182,1.011-0.256,1.519"/>
	<path display="inline" fill="#313873" d="M154.468,42.075c-0.066-0.482-0.131-0.964-0.196-1.446"/>
	<path display="inline" fill="#3B628D" d="M189.163,38.616c0-2.709-0.564-4.846-1.691-6.408c-1.127-1.563-2.528-2.694-4.205-3.396
		c-1.677-0.701-3.766-1.307-6.267-1.818c-0.095-0.019-0.198-0.038-0.313-0.057c-0.113-0.019-0.218-0.038-0.313-0.057
		c-0.075-0.019-0.146-0.033-0.213-0.043c-0.066-0.009-0.138-0.023-0.213-0.042c-2.142-0.417-3.813-0.819-5.016-1.208
		s-2.207-0.99-3.013-1.805c-0.805-0.814-1.207-1.932-1.207-3.353v-0.028c0-2.065,0.781-3.661,2.344-4.789
		c1.563-1.127,3.756-1.69,6.579-1.69c1.572,0,3.14,0.289,4.703,0.867c1.563,0.578,3.13,1.445,4.702,2.6l3.297-4.604
		c-1.346-0.966-2.714-1.767-4.106-2.401c-1.393-0.634-2.804-1.113-4.234-1.435c-1.431-0.322-2.884-0.483-4.361-0.483
		c-3.089,0-5.731,0.474-7.929,1.421s-3.869,2.326-5.016,4.134c-1.146,1.81-1.719,3.993-1.719,6.55V20.6
		c0,2.917,0.615,5.167,1.847,6.749c1.231,1.582,2.714,2.671,4.447,3.268s3.982,1.133,6.749,1.605l0.427,0.086
		c0.057,0.019,0.117,0.028,0.185,0.028c0.065,0,0.128,0.01,0.185,0.028c1.875,0.341,3.405,0.715,4.589,1.122
		c1.184,0.408,2.15,1.033,2.898,1.876c0.749,0.843,1.123,1.984,1.123,3.424v0.028c0,1.599-0.525,2.905-1.552,3.931
		c-0.479,0.46-1.587,1.406-2.92,1.738c-1.788,0.446-4.841-0.098-6.077-0.519c-1.236-0.421-2.52-0.812-3.458-1.069
		s-4.381,0.218-4.381,0.218s-3.139,0.695-3.896,0.945c0.427,0.018,2.357,0.009,2.786,0.027c0.473-0.099,1.081-0.059,1.554,0.274
		c0.345,0.243,0.616,0.591,0.84,0.954c0.933-0.096,1.784-0.427,2.719-0.457c0.997-0.032,1.859,0.173,2.819,0.915
		c-1.617,0.339-2.727,0.37-4.128,0.833c0.522,0.875,1.429,1.615,2.016,2.332c0.189,0.137,0.567,0.412,0.567,0.412
		s2.089,1.466,5.586,1.229s6.079-0.92,7.314-1.75c1.062-0.713,1.968-1.199,3.093-2.374l0.01,0.006
		c0.156-0.166,0.303-0.339,0.449-0.514c0.037-0.042,0.071-0.077,0.108-0.121c0.568-0.672,0.98-1.421,1.277-2.081
		c0.007-0.015,0.013-0.03,0.019-0.045c0.42-0.946,0.594-1.693,0.594-1.693l-0.011,0.001c0.268-1.031,0.413-2.138,0.413-3.333V38.616
		z"/>
</g>
<g id="Layer_4_1_" display="none">
	<path display="inline" fill="#3B628D" d="M106.668,50.21h-5.797V36.532l2.178-4.928l-2.178-4.233V8.892h5.797v18.993l-1.849,4.024
		l1.849,5.57V50.21z"/>
	<path display="inline" fill="#3B628D" d="M100.421,53.321c0.92-0.611,1.829-1.239,2.764-1.825c0.456-0.285,0.648-0.624,0.617-1.173
		c-0.064-1.131-0.063-2.266-0.089-3.399c0.187-0.055,0.374-0.11,0.562-0.165c-0.009,1.134,0.024,2.271-0.044,3.402
		c-0.044,0.733,0.247,1.153,0.854,1.51c0.82,0.483,1.589,1.052,2.381,1.583"/>
	<path display="inline" fill="#1BBCDD" d="M103.713,51.048c-1.486-0.237-1.61-0.54-1.421-2.509c0.28-2.908,0.092-5.824-0.068-8.734
		c-0.043-0.937,0.245-1.873,0.01-2.811c0.225-0.376,0.123-0.827,0.155-1.242c0.071-0.923,0.103-1.853,0.532-2.652
		c0.566,0.635,1.165,1.014,1.965,0.792c0.426-0.118,0.895,0.027,1.344,0.053c0.964,2.861,1.989,5.686,2.445,8.791
		c0.413,2.808-0.281,4.991-2.053,6.634c-0.716,0.664-1.487,1.189-2.35,1.465C104.087,50.906,103.9,50.977,103.713,51.048z"/>
	<path display="inline" fill="#3B628D" d="M113.589,26.851c1.342,0.946,1.782,2.368,2.005,3.879
		c0.289,1.955,0.312,3.944,0.729,5.885c0.048,0.221-0.035,0.413-0.137,0.6c-1.22,0.544-2.419,1.163-3.822,1.032
		c-0.401,0.009-0.802,0.019-1.202,0.028c-0.376-1.346-0.507-2.719-0.462-4.113c0.754-0.648,1.314-1.434,1.852-2.558
		c-1.062,0.744-2.129,1.158-1.878,2.533c-0.296-0.297,0.012-0.756-0.268-1.09c-0.489,0.289-0.965,0.542-1.409,0.841
		c-0.516,0.347-0.943,0.313-1.318-0.193c-0.104-0.42-0.269-0.83-0.227-1.276c0.241-0.269,0.709-0.143,0.894-0.51
		c0.992-0.208,2.387-1.895,2.384-2.888c0-0.019-0.043-0.039-0.065-0.058c0.243-0.581,0.893-0.82,1.161-1.379
		C112.573,27.723,113.117,27.373,113.589,26.851z"/>
	<path display="inline" fill="#94EDFB" d="M101.431,29.202c0.469-0.916,0.238-1.93,0.408-2.887c0.134-0.211,0.349-0.192,0.557-0.194
		c0.275,1.401,0.93,2.042,2.304,2.235c0.463,0.065,0.93,0.103,1.395,0.153c-0.175,1.591-0.918,2.863-2.199,3.812
		c-0.358,0.266-0.677,0.526-0.72,1.001c-0.047,0.051-0.095,0.102-0.142,0.154c-0.475,0.684-0.511,1.477-0.59,2.266
		c-0.035,0.355,0.077,0.739-0.173,1.061c-0.613-0.155-0.79-0.889-1.4-1.048"/>
	<path display="inline" fill="#94EDFB" d="M100.972,35.154c0.556-1.269,1.464-2.441,0.92-3.983
		c-0.217-0.614-0.281-1.282-0.415-1.925"/>
	<path display="inline" fill="#3B628D" d="M106.094,28.509c-0.465-0.05-0.932-0.088-1.395-0.153
		c-1.374-0.193-2.029-0.834-2.304-2.235c0.529-0.18,1.073-0.275,1.13-1.046c0.034-0.459,1.302-0.637,1.349-0.242
		c0.125,1.038,0.992,1.148,1.628,1.562C106.42,27.109,106.413,27.839,106.094,28.509z"/>
	<path display="inline" fill="#313873" d="M106.705,53.095c-2.469-1.253-2.469-1.255-5.05-0.133"/>
	<path display="inline" fill="#32133B" d="M111.262,24.194c-0.418-0.06-0.905-0.085-0.276-0.616c0.09-0.076,0.188-0.172,0.224-0.279
		c0.353-1.052,1.097-1.063,1.953-0.726c0.634,0.25,1.44,0.406,1.467,1.264c0.027,0.858-0.446,1.525-1.182,1.985
		c-0.064-0.096-0.176-0.188-0.185-0.29C113.152,24.304,112.391,23.79,111.262,24.194z"/>
	<path display="inline" fill="#1BBCDD" d="M105.681,28.621c0.288-0.604,0.293-1.262,0.367-1.907
		c0.177,0.079,0.354,0.158,0.531,0.236c0.069,0.631-0.262,1.235-0.126,1.87c-0.181,1.323-0.505,2.627-0.549,3.969
		c-0.356,0.182-0.766,0.292-1.119,0.155c-0.602-0.234-1.161-0.094-1.738,0.017c0.04-0.429,0.327-0.663,0.65-0.903
		C104.854,31.202,105.524,30.056,105.681,28.621z"/>
	<path display="inline" fill="#F6AA74" d="M111.262,24.194c1.129-0.404,1.889,0.11,2,1.339c0.009,0.101,0.121,0.193,0.185,0.29
		c-0.08,0.36,0.095,0.686,0.142,1.028c-0.472,0.522-1.016,0.872-1.764,0.732c-0.093-0.577-0.124-1.129-0.546-1.65
		C110.894,25.459,111.134,24.781,111.262,24.194z"/>
	<path display="inline" fill="#313873" d="M110.664,28.963c0.023,0.019,0.065,0.039,0.065,0.058c0.003,0.993-1.392,2.68-2.384,2.888
		c-0.371-0.178-0.87-0.207-0.905-0.776c0.097-0.466,0.268-0.899,0.588-1.261c0.925,0.504,1.364-0.535,2.094-0.671
		C110.294,29.169,110.442,28.958,110.664,28.963z"/>
	<path display="inline" fill="#3B628D" d="M100.871,35.755c0.609,0.159,0.787,0.893,1.4,1.048c0.26,0.802-0.059,1.601-0.011,2.401
		c-2.222-0.228-2.396-0.497-1.687-2.613"/>
	<path display="inline" fill="#3B628D" d="M100.885,27.841c-0.348-1.043-0.16-1.329,0.953-1.526
		c-0.169,0.958,0.061,1.972-0.408,2.887"/>
	<path display="inline" fill="#F6AA74" d="M107.44,31.133c-0.604-0.453-1.04-0.978-0.853-1.809c0.046-0.203,0.127-0.325,0.333-0.355
		c0.369,0.301,0.739,0.602,1.108,0.903C107.708,30.234,107.537,30.666,107.44,31.133z"/>
	<path display="inline" fill="#3B628D" d="M106.907,28.25c-0.151,0.19-0.303,0.38-0.454,0.57c-0.136-0.636,0.195-1.24,0.127-1.871
		C107.561,27.165,106.877,27.797,106.907,28.25z"/>
	<path display="inline" fill="#F6AA74" d="M107.679,33.695c-0.482,0.018-0.965,0.037-1.447,0.055
		c-0.45-0.02-0.919-0.132-1.345-0.041c-0.8,0.171-1.4-0.121-1.965-0.61c0.043-0.047,0.086-0.093,0.128-0.139
		c0.576-0.11,1.136-0.251,1.737-0.017c0.353,0.137,0.763,0.027,1.119-0.155c0.551,0.025,1.017-0.305,1.546-0.37
		C107.41,32.865,107.575,33.275,107.679,33.695z"/>
	<path display="inline" fill="#2192A3" d="M111.45,41.843c-0.096-1.19-0.192-2.379-0.288-3.569c0.401-0.009,0.801-0.019,1.202-0.028
		c0.324,1.464,1.063,2.766,1.616,4.141c0.309,0.768,0.775,1.476,0.904,2.315c0,0-0.025,0.033-0.025,0.033
		c-0.194,0.176-0.149,0.396-0.114,0.615c-0.003,0.366,0.181,0.765-0.188,1.067c-0.836-1.37-1.676-2.737-2.503-4.112
		C111.906,42.062,111.761,41.855,111.45,41.843z"/>
	<path display="inline" fill="#313873" d="M110.674,34.137c-0.251-1.375,0.816-1.789,1.878-2.533
		c-0.538,1.124-1.098,1.91-1.852,2.558C110.7,34.162,110.674,34.137,110.674,34.137z"/>
	<path display="inline" fill="#313873" d="M110.728,53.183c0.615-0.21,1.262-0.367,1.613-1.002c0.364,0.103,0.728,0.205,1.092,0.308
		c0.012,0.097,0.023,0.195,0.035,0.292"/>
	<path display="inline" fill="#2AACBE" d="M113.433,52.49c-0.364-0.103-0.728-0.205-1.092-0.308
		c-0.336-0.508-0.242-1.108-0.287-1.656c-0.238-2.891-0.409-5.788-0.604-8.682c0.311,0.011,0.456,0.218,0.602,0.462
		c0.827,1.375,1.667,2.742,2.503,4.112c0.125,1.808-0.312,3.537-0.73,5.271c-0.065,0.268-0.129,0.516-0.331,0.711
		C113.47,52.427,113.45,52.457,113.433,52.49z"/>
	<path display="inline" fill="#2AACBE" d="M114.859,44.735c0.01,0.214,0.021,0.428-0.114,0.615
		C114.71,45.131,114.664,44.911,114.859,44.735z"/>
	<path display="inline" fill="#474C5B" d="M113.468,52.782c-0.012-0.097-0.023-0.194-0.035-0.292
		c0.017-0.033,0.038-0.063,0.061-0.09C113.485,52.527,113.476,52.654,113.468,52.782"/>
	<path display="inline" fill="#2AACBE" d="M112.45,38.305c1.325,0.124,2.458-0.461,3.61-0.975c0.208,1.688,0.457,3.374,1.3,4.884
		c0.513,0.918,1.019,1.821,1.238,2.867c0.359,1.715,0.804,3.414,0.834,5.18c-0.328,0.172-0.657,0.345-0.985,0.517
		c-0.111-0.162-0.236-0.317-0.332-0.488c-1.098-1.961-2.191-3.925-3.286-5.888c-0.122-0.792-0.562-1.46-0.854-2.186
		C113.454,40.917,112.756,39.687,112.45,38.305z"/>
	<path display="inline" fill="#313873" d="M118.448,50.778c0.328-0.172,0.657-0.345,0.985-0.517c0.325,0.36,0.657,0.663,0.083,1.156
		c-0.22,0.189-0.188,0.683-0.413,0.983c-0.428,0.428-0.89,0.281-1.355,0.081C118.527,52.137,118.463,51.447,118.448,50.778z"/>
</g>
<g id="Layer_5" display="none">
	<path display="inline" fill="#3B628D" d="M63.44,55.071c0.025-0.923-0.254-1.912,0.086-2.757c1.051-2.608,0.343-5.256,0.345-7.885
		c0.001-0.879-0.046-1.743,0.407-2.54c1.153,0.443,2.365,0.583,3.583,0.693c-0.636,2.2-0.849,4.485-1.353,6.712
		c-0.904,1.892-1.582,3.853-1.849,5.942c-0.199,0.358-0.155,0.758-0.197,1.143c-0.256-0.057-0.512-0.114-0.769-0.171
		C63.61,55.83,63.525,55.45,63.44,55.071z"/>
	<path display="inline" fill="#1BBCDD" d="M55.409,57.201c0.204-0.483,0.645-0.584,1.092-0.664c0.38-0.068,0.701-0.119,0.671-0.666
		c-0.022-0.401,0.376-0.458,0.705-0.438c0.61,0.036,1.197,0.191,1.737,0.477c0.366,0.194,0.648,0.274,0.712-0.275
		c0.075-0.642,0.519-0.823,1.073-0.785c0.682,0.047,1.361,0.146,2.041,0.222c0.085,0.379,0.17,0.758,0.255,1.138
		c-0.23,0.328-0.325,0.704-0.394,1.09"/>
	<path display="inline" fill="#F6AA74" d="M71.026,41.74c0.804,0.263,0.96,0.894,0.932,1.63c-0.131-0.028-0.262-0.056-0.394-0.083
		c-0.452-0.526-0.633-1.415-1.63-1.209c-0.316-0.252-0.72-0.171-1.073-0.283c-0.483-0.188-0.965-0.376-1.448-0.564
		c-0.31-0.394-0.635-0.777-0.839-1.243c-0.316-0.722-0.636-1.442-0.954-2.163c0.054-0.467-0.266-0.912-0.08-1.387
		c1.029-0.545,1.113-0.517,1.506,0.58c0.257,0.717,0.493,1.441,0.74,2.162c0.231,0.673,0.602,1.222,1.324,1.45
		C69.705,41.076,70.324,41.48,71.026,41.74z"/>
	<path display="inline" fill="#2AACBE" d="M69.111,40.631c-0.722-0.228-1.092-0.777-1.324-1.45c-0.248-0.72-0.483-1.445-0.74-2.162
		c-0.393-1.097-0.477-1.125-1.506-0.58c0.003-1.05,0.29-1.262,1.583-1.172c-0.017,0.68-0.021,1.282,0.865,1.528
		c1.391,0.387,1.376,0.439,1.158-0.935c0.698,0.095,0.996,0.597,1.208,1.185c-0.178,0.052-0.427,0.105-0.404,0.31
		c0.076,0.688-0.426,1.242-0.4,1.909C69.404,39.721,69.257,40.176,69.111,40.631z"/>
	<path display="inline" fill="#32133B" d="M68.042,34.095c-0.733-0.381-1.036-0.946-0.698-1.741
		c0.112-0.263-0.043-0.363-0.163-0.536c-0.313-0.451-0.297-0.932,0.152-1.263c0.405-0.298,0.835-0.131,1.093,0.257
		c0.167,0.251,0.375,0.217,0.594,0.277c1.009,0.278,1.643,1.677,1.175,2.558c-0.318-0.269,0.052-0.731-0.307-1.032
		c-0.367,0.238-0.649,0.914-0.98,0.794C68.084,33.109,68.152,33.652,68.042,34.095z"/>
	<path display="inline" fill="#2AACBE" d="M67.413,41.232c0.483,0.188,0.965,0.376,1.448,0.564c-0.1,0.262,0.006,0.623-0.364,0.755
		c-0.113,0-0.226,0.001-0.339,0.001c-0.099,0.01-0.197,0.021-0.296,0.031c-1.218-0.11-2.43-0.25-3.583-0.693
		c-0.273-1.02,0.467-1.589,1.004-2.249c0.227,0.255,0.442,0.522,0.683,0.764C66.369,40.81,66.725,41.315,67.413,41.232z"/>
	<path display="inline" fill="#F6AA74" d="M68.042,34.095c0.11-0.443,0.041-0.986,0.867-0.686c0.331,0.12,0.613-0.556,0.98-0.794
		c0.359,0.301-0.012,0.763,0.307,1.032c-0.189,0.513-0.355,1.002-0.926,1.288c-0.285,0.143-0.473,0.563-0.124,0.926
		c0.219,1.374,0.233,1.322-1.158,0.935c-0.885-0.246-0.882-0.849-0.865-1.528C67.796,35.163,67.89,34.606,68.042,34.095z"/>
	<path display="inline" fill="#F6AA74" d="M69.55,39.265c-0.026-0.667,0.476-1.222,0.4-1.909c-0.023-0.205,0.227-0.258,0.404-0.31
		c0.347,0.45,0.504,0.994,0.661,1.516c0.3,0.999,0.931,1.627,1.884,1.986c0.321,0.121,0.63,0.272,0.944,0.409
		c-0.457,0.308-1.01,0.279-1.512,0.427c-0.674-0.202-1.385-0.321-1.846-0.949C70.189,40.033,69.863,39.654,69.55,39.265z"/>
	<path display="inline" fill="#2192A3" d="M67.413,41.232c-0.689,0.084-1.044-0.422-1.449-0.828
		c-0.241-0.241-0.456-0.508-0.683-0.764c0.349-0.561,0.212-1.211,0.338-1.814c0.318,0.721,0.638,1.441,0.954,2.163
		C66.778,40.455,67.103,40.838,67.413,41.232z"/>
	<path display="inline" fill="#1BBCDD" d="M65.684,57.299c-0.292-0.458-1.024-0.335-1.221-0.919
		c0.042-0.385-0.002-0.785,0.197-1.143c1.519,0.141,1.668,0.022,1.876-1.497c0.057-0.418,0.115-0.835,0.173-1.252
		c0.538,1.349,1.119,2.676,1.904,3.904c-0.051,0.25-0.103,0.5-0.154,0.749"/>
	<path display="inline" fill="#313873" d="M68.46,57.14c0.051-0.25,0.103-0.5,0.154-0.75c0.175-0.118,0.35-0.236,0.525-0.354
		c0.216,0.183,0.431,0.365,0.647,0.548c0.143,0.459,0.712,0.246,0.929,0.587"/>
	<path display="inline" fill="#313873" d="M63.301,57.299c0.069-0.386,0.164-0.762,0.394-1.09c0.256,0.057,0.512,0.114,0.769,0.171
		c0.197,0.584,0.928,0.461,1.221,0.919"/>
	<path display="inline" fill="#313873" d="M66.587,49.678c-0.026-0.128-0.052-0.256-0.078-0.384
		c0.503-2.227,0.716-4.512,1.353-6.712c0.099-0.01,0.197-0.02,0.296-0.031c0.1,0.046,0.2,0.093,0.301,0.139
		c0.026,0.202,0.052,0.404,0.078,0.606c-0.162,0.394,0.147,0.711,0.235,1.077c-0.027,0.125,0.09,0.194,0.09,0.35
		c0.012,0.319-0.101,0.664-0.09,0.983C67.849,46.924,67.433,48.419,66.587,49.678z"/>
	<path display="inline" fill="#1BBCDD" d="M68.537,43.296c0.466-0.406,0.931-0.812,1.397-1.217c0.997-0.206,1.179,0.683,1.63,1.209
		c-1.285,1.463-1.248,3.187-0.945,4.944c0.286,1.664,0.625,3.319,0.947,4.976c0.392,2.015,0.128,2.522-1.78,3.377
		c-0.216-0.182-0.431-0.365-0.647-0.548c-0.092-0.596-0.179-1.193-0.275-1.788c-0.222-1.374-0.56-2.75-0.319-4.145
		c0.254-1.463,0.323-2.923,0.227-4.397c-0.012-0.319-0.023-0.638-0.035-0.956C68.779,44.621,68.375,43.69,68.537,43.296z"/>
	<path display="inline" fill="#3B628D" d="M68.497,42.55c0.002,0.051-0.011,0.097-0.039,0.14c-0.1-0.046-0.2-0.093-0.301-0.139
		C68.271,42.551,68.384,42.551,68.497,42.55z"/>
	<path display="inline" fill="#3B628D" d="M68.772,45.706c0.096,1.475,0.027,2.935-0.227,4.397
		c-0.242,1.394,0.096,2.771,0.319,4.145c0.096,0.595,0.184,1.192,0.275,1.788c-0.175,0.118-0.35,0.236-0.525,0.354
		c-0.785-1.228-1.366-2.555-1.904-3.904c-0.202-0.93-0.15-1.869-0.122-2.808C67.433,48.419,67.849,46.924,68.772,45.706z"/>
	<path display="inline" fill="#3B628D" d="M96.576,15.698c-1.203-2.302-2.903-4.083-5.101-5.342c-2.198-1.26-4.736-1.89-7.616-1.89
		c-2.88,0-5.418,0.63-7.616,1.89c-2.198,1.26-3.898,3.041-5.101,5.342s-1.804,4.968-1.804,8v6.167h5.939v-6.367
		c0-1.856,0.355-3.49,1.065-4.902c0.71-1.411,1.714-2.5,3.012-3.268c1.297-0.767,2.799-1.151,4.504-1.151s3.206,0.384,4.504,1.151
		c1.297,0.768,2.302,1.857,3.012,3.268c0.71,1.412,1.065,3.045,1.065,4.902v12.105c0,1.857-0.355,3.491-1.065,4.902
		s-1.715,2.5-3.012,3.268c-1.298,0.768-2.799,1.151-4.504,1.151c-0.473,0-0.926-0.036-1.368-0.096
		c-3.737-0.315-6.329-2.131-7.417-3.286c-0.341-0.362-0.698-0.649-1.233-0.586c-0.457,0.308-1.01,0.279-1.512,0.426
		c-0.435,0.119-0.87,0.237-1.304,0.356c0.804,0.263,0.96,0.895,0.932,1.631c0.793,2.117,1.601,3.447,2.994,4.571
		c1.393,1.125,2.839,2.268,7.031,2.594c0.61,0.063,1.233,0.099,1.877,0.099c2.879,0,5.417-0.629,7.616-1.89
		c2.197-1.259,3.897-3.04,5.101-5.342s1.805-4.968,1.805-7.999V23.697C98.381,20.666,97.78,18,96.576,15.698z"/>
</g>
</svg>
