<?xml version="1.0" encoding="utf-8"?>
<!-- Generator: Adobe Illustrator 24.1.1, SVG Export Plug-In . SVG Version: 6.00 Build 0)  -->
<svg version="1.1" xmlns="http://www.w3.org/2000/svg" xmlns:xlink="http://www.w3.org/1999/xlink" x="0px" y="0px"
	 viewBox="0 0 779.59 779.59" style="enable-background:new 0 0 779.59 779.59;" xml:space="preserve">
<style type="text/css">
	.st0{display:none;}
	.st1{display:inline;fill:#184D87;}
	.st2{display:inline;}
	.st3{fill:#FFFFFF;}
	.st4{fill:#FCFCFC;}
	.st5{fill:#FCFCFA;stroke:#FFFFFF;stroke-width:7;stroke-miterlimit:10;}
	.st6{display:none;fill:none;stroke:#FCFCFC;stroke-width:3;stroke-miterlimit:10;}
	.st7{display:inline;fill:none;stroke:#94EDFB;stroke-width:19;stroke-linecap:round;stroke-linejoin:round;stroke-miterlimit:10;}
	.st8{display:inline;fill:#FDBC01;}
	.st9{fill:none;stroke:#FDBC01;stroke-width:19;stroke-linecap:round;stroke-linejoin:round;stroke-miterlimit:10;}
	.st10{display:inline;fill:#FCFCFC;}
	.st11{display:inline;fill:#94EDFB;}
</style>
<g id="Layer_2" class="st0">
	<rect x="-0.81" class="st1" width="779.59" height="779.59"/>
</g>
<g id="poly" class="st0">
	<g class="st2">
		<path class="st3" d="M237.4,245.59c1.07-1.35,2.19-2.89,3.44-4.32c18.32-20.89,36.76-41.67,54.89-62.72
			c4.18-4.85,8.42-7.89,15.15-8.15c7.48-0.29,14.96-1.71,22.35-3.08c4.07-0.75,5.47,0.52,6.78,4.39
			c7.34,21.57,26.23,35.17,48.26,35.24c22.33,0.07,41.33-13.52,48.74-35.44c1.36-4.03,3.08-4.89,6.92-4.31
			c9.14,1.38,18.41,2.03,27.47,3.78c3.87,0.75,8.31,2.64,10.87,5.48c19.32,21.44,38.23,43.24,57.25,64.95
			c1.23,1.41,2.26,2.99,2.41,3.18c-12.06,12.46-23.64,24.41-35.95,37.13c-5.86-6.18-11.42-12.83-17.87-18.47
			c-2.62-2.29-7.32-3.6-10.8-3.16c-4.82,0.62-6.45,5.1-6.33,9.88c0.05,1.94-0.01,3.88-0.01,5.81c0,42.86,0,85.72,0,128.58
			c0,2.71,0,5.42,0,8.67c-15.93,0-30.77-0.05-45.61,0.02c-7.58,0.03-12.07,3.7-12.12,9.61c-0.05,5.91,4.31,9.44,12,9.47
			c16.8,0.06,33.6,0.01,50.41,0.02c11.85,0.01,14.48-2.57,14.48-14.27c0-38.77-0.01-77.53-0.01-116.3c0-2.47,0-4.93,0-9.15
			c3.61,3.42,5.91,5.55,8.15,7.73c7.08,6.91,11.15,7.01,18.07,0.13c15.12-15.04,30.2-30.11,45.24-45.23
			c6.11-6.14,6.31-10.42,0.75-16.78c-23.4-26.74-46.78-53.51-70.43-80.02c-2.33-2.61-6.34-4.57-9.83-5.12
			c-15.51-2.44-31.11-4.23-46.68-6.29c-10.44-1.38-13.62,1-15.05,11.42c-2.44,17.7-15.25,29.61-31.85,29.6
			c-16.57-0.01-29.41-12-31.72-29.65c-1.33-10.11-4.63-12.73-14.54-11.39c-14.92,2.02-29.86,3.94-44.73,6.29
			c-2.94,0.46-6.36,2-8.29,4.17c-24.17,27.21-48.15,54.59-72.07,82.03c-4.45,5.1-4.38,9.62,0.26,14.34
			c15.86,16.12,31.83,32.14,47.88,48.07c4.98,4.94,9.58,4.81,14.75,0.08c2.76-2.52,5.35-5.22,9.31-9.11c0,4.21,0,6.51,0,8.8
			c0,39.2-0.03,78.4,0,117.59c0.01,10.07,3.06,13.04,13.11,13.05c17.02,0.02,34.04,0.06,51.05-0.02c7.13-0.03,11.42-3.72,11.39-9.43
			c-0.03-5.69-4.42-9.5-11.46-9.61c-8.4-0.13-16.8-0.04-25.2-0.04c-6.36,0-12.71,0-19.74,0c0-4.03,0-7,0-9.98
			c0-43.72-0.02-87.44,0.03-131.16c0.01-5.01-0.57-9.52-5.98-11.67c-5.37-2.14-9.01,0.65-12.49,4.21
			c-5.65,5.8-11.4,11.51-16.39,16.54C261.27,268.89,249.46,257.36,237.4,245.59z M398.61,463.19c0-3.99,0-6.29,0-8.6
			c0-23.01,0.01-46.03,0.01-69.04c0-2.15,0.07-4.31-0.03-6.45c-0.28-6.12-3.97-10.1-9.36-10.19c-5.65-0.1-9.63,4.01-9.66,10.51
			c-0.09,24.73-0.04,49.47-0.04,74.2c0,2.27,0,4.53,0,8.07c-2.34-1.93-3.6-2.93-4.83-3.99c-5.09-4.4-10.35-4.6-14.29-0.51
			c-3.98,4.13-3.73,9.4,1,14.26c6.9,7.09,13.93,14.05,21,20.97c4.12,4.04,9.19,4.71,13.34,0.91c8.24-7.54,16.1-15.53,23.67-23.75
			c3.73-4.05,3.01-8.93-0.96-12.69c-3.75-3.55-8.13-3.71-12.3-0.53C403.98,458.01,402.06,460.04,398.61,463.19z"/>
		<path class="st3" d="M600.34,527.44c0.02-8.3-1.78-15.06-6.72-22c-17.35-24.36-33.89-49.31-50.88-73.94
			c-1.64-2.38-4.03-5.54-6.37-5.82c-3.37-0.4-7.9,0.5-10.36,2.65c-4.16,3.63-2.81,8.48,0.17,12.82
			c13.88,20.24,27.7,40.51,41.51,60.79c0.01,0.02,0.02,0.04,0.04,0.05c1.82,2.68-0.15,6.31-3.39,6.31H214.99
			c-3.26,0-5.2-3.65-3.36-6.35c4.14-6.09,7.92-11.66,11.72-17.22c10.07-14.76,20.18-29.49,30.21-44.27
			c2.82-4.16,3.47-9.09-0.43-12.32c-2.52-2.09-7.08-2.88-10.45-2.38c-2.35,0.34-4.63,3.58-6.29,5.97
			c-18.34,26.57-36.63,53.18-54.7,79.93c-1.65,2.44-2.34,5.99-2.35,9.02c-0.12,79.03-0.09,158.07-0.08,237.1
			c0,10.59,2.88,13.52,13.24,13.52c131.39,0.01,262.78,0.01,394.17,0c10.78,0,13.54-2.85,13.55-13.87
			C600.22,680.77,600.12,604.1,600.34,527.44z M580.67,747.66c0,2.25-1.82,4.07-4.07,4.07H202.97c-2.25,0-4.07-1.82-4.07-4.07
			V532.58c0-2.25,1.82-4.07,4.07-4.07H576.6c2.25,0,4.07,1.82,4.07,4.07V747.66z"/>
		<path class="st4" d="M237.4,245.59c12.06,11.77,23.87,23.3,36.26,35.4c4.99-5.03,10.74-10.74,16.39-16.54
			c3.48-3.57,7.11-6.35,12.49-4.21c5.41,2.16,5.99,6.66,5.98,11.67c-0.05,43.72-0.03,87.44-0.03,131.16c0,2.97,0,5.95,0,9.98
			c7.03,0,13.38,0,19.74,0c8.4,0,16.8-0.1,25.2,0.04c7.04,0.11,11.43,3.93,11.46,9.61c0.03,5.71-4.26,9.4-11.39,9.43
			c-17.02,0.08-34.03,0.04-51.05,0.02c-10.05-0.01-13.1-2.97-13.11-13.05c-0.04-39.2-0.01-78.4,0-117.59c0-2.29,0-4.59,0-8.8
			c-3.96,3.89-6.55,6.59-9.31,9.11c-5.17,4.73-9.77,4.86-14.75-0.08c-16.06-15.93-32.03-31.94-47.88-48.07
			c-4.65-4.72-4.71-9.24-0.26-14.34c23.92-27.43,47.9-54.81,72.07-82.03c1.93-2.17,5.35-3.7,8.29-4.17
			c14.87-2.35,29.81-4.27,44.73-6.29c9.91-1.34,13.22,1.28,14.54,11.39c2.31,17.65,15.15,29.65,31.72,29.65
			c16.6,0.01,29.41-11.9,31.85-29.6c1.44-10.41,4.61-12.8,15.05-11.42c15.57,2.06,31.17,3.85,46.68,6.29
			c3.5,0.55,7.51,2.52,9.83,5.12c23.66,26.52,47.03,53.28,70.43,80.02c5.56,6.36,5.36,10.63-0.75,16.78
			c-15.03,15.12-30.12,30.2-45.24,45.23c-6.92,6.88-10.99,6.78-18.07-0.13c-2.24-2.18-4.53-4.31-8.15-7.73c0,4.22,0,6.68,0,9.15
			c0,38.77,0.01,77.53,0.01,116.3c0,11.7-2.63,14.27-14.48,14.27c-16.8-0.01-33.6,0.04-50.41-0.02c-7.69-0.03-12.05-3.56-12-9.47
			c0.05-5.91,4.54-9.57,12.12-9.61c14.84-0.07,29.67-0.02,45.61-0.02c0-3.26,0-5.96,0-8.67c0-42.86,0-85.72,0-128.58
			c0-1.94,0.06-3.88,0.01-5.81c-0.13-4.78,1.51-9.26,6.33-9.88c3.47-0.44,8.18,0.87,10.8,3.16c6.45,5.64,12.01,12.29,17.87,18.47
			c12.32-12.72,23.89-24.67,35.95-37.13c-0.14-0.19-1.17-1.77-2.41-3.18c-19.02-21.71-37.93-43.51-57.25-64.95
			c-2.56-2.84-7-4.73-10.87-5.48c-9.06-1.75-18.33-2.4-27.47-3.78c-3.84-0.58-5.56,0.29-6.92,4.31
			c-7.42,21.91-26.41,35.5-48.74,35.44c-22.03-0.07-40.92-13.66-48.26-35.24c-1.31-3.86-2.71-5.14-6.78-4.39
			c-7.4,1.37-14.87,2.79-22.35,3.08c-6.73,0.26-10.97,3.3-15.15,8.15c-18.13,21.05-36.58,41.83-54.89,62.72
			C239.59,242.7,238.47,244.23,237.4,245.59z"/>
		<path class="st4" d="M398.61,463.19c3.45-3.15,5.37-5.17,7.56-6.85c4.17-3.18,8.56-3.02,12.3,0.53c3.97,3.76,4.69,8.64,0.96,12.69
			c-7.57,8.22-15.44,16.21-23.67,23.75c-4.16,3.81-9.22,3.13-13.34-0.91c-7.07-6.92-14.1-13.89-21-20.97
			c-4.74-4.86-4.98-10.13-1-14.26c3.93-4.08,9.2-3.89,14.29,0.51c1.23,1.06,2.49,2.07,4.83,3.99c0-3.54,0-5.8,0-8.07
			c0-24.73-0.04-49.47,0.04-74.2c0.02-6.5,4-10.61,9.66-10.51c5.38,0.1,9.07,4.08,9.36,10.19c0.1,2.15,0.03,4.3,0.03,6.45
			c0,23.01-0.01,46.03-0.01,69.04C398.61,456.89,398.61,459.2,398.61,463.19z"/>
		<path class="st4" d="M513.7,724.28c11.83-0.01,23.66,0.06,35.49-0.04c4.62-0.04,9.37,0.3,9.42,6.08c0.05,6.12-4.87,6.54-9.74,6.53
			c-23.66-0.06-47.32-0.04-70.99-0.02c-4.56,0.01-9.16-0.22-9.32-6.2c-0.17-6.1,4.37-6.39,8.99-6.37
			C489.61,724.33,501.65,724.28,513.7,724.28z"/>
		<path class="st4" d="M527.47,707.42c-7.96,0-15.92-0.05-23.88,0.01c-4.23,0.03-7.43-1.49-7.49-6.04
			c-0.06-4.55,3.24-6.34,7.34-6.36c15.92-0.09,31.85-0.08,47.77-0.02c4.1,0.02,7.46,1.71,7.48,6.24c0.02,5-3.57,6.25-7.97,6.2
			C542.97,707.36,535.22,707.42,527.47,707.42z"/>
		<path class="st4" d="M255.28,706.41c-0.01-4.3-0.7-8.77,0.26-12.85c0.58-2.45,3.49-5.57,5.8-6c1.67-0.32,5.75,3.16,5.89,5.14
			c0.66,9.2,0.71,18.5,0.02,27.69c-0.15,2.05-4.03,4.97-6.46,5.27c-1.58,0.19-4.79-3.43-5.25-5.74
			C254.68,715.57,255.29,710.93,255.28,706.41z"/>
		<path class="st4" d="M239.68,706.62c0,4.09-0.08,8.18,0.02,12.27c0.1,4.13-2.05,7.4-5.8,6.87c-2.48-0.35-6.19-3.86-6.41-6.22
			c-0.78-8.54-0.78-17.24,0-25.78c0.22-2.38,4.11-4.42,6.32-6.62c1.96,2.4,4.94,4.55,5.62,7.27
			C240.41,698.26,239.68,702.53,239.68,706.62z"/>
		<path class="st4" d="M295.28,707.26c0,3.88,0.73,7.95-0.24,11.56c-0.74,2.74-3.65,4.89-5.59,7.3c-2.23-2.17-6.16-4.19-6.37-6.55
			c-0.78-8.54-0.78-17.24,0-25.78c0.22-2.38,4.11-4.43,6.31-6.64c1.96,2.4,5,4.54,5.63,7.25
			C295.99,698.48,295.28,702.95,295.28,707.26z"/>
	</g>
</g>
<g id="carton">
	<g>
		<path class="st3" d="M398.61,463.19c0-3.99,0-6.29,0-8.6c0-23.01,0.01-46.03,0.01-69.04c0-2.15,0.07-4.31-0.03-6.45
			c-0.28-6.12-3.97-10.1-9.36-10.19c-5.65-0.1-9.63,4.01-9.66,10.51c-0.09,24.73-0.04,49.47-0.04,74.2c0,2.27,0,4.53,0,8.07
			c-2.34-1.93-3.6-2.93-4.83-3.99c-5.09-4.4-10.35-4.6-14.29-0.51c-3.98,4.13-3.73,9.4,1,14.26c6.9,7.09,13.93,14.05,21,20.97
			c4.12,4.04,9.19,4.71,13.34,0.91c8.24-7.54,16.1-15.53,23.67-23.75c3.73-4.05,3.01-8.93-0.96-12.69
			c-3.75-3.55-8.13-3.71-12.3-0.53C403.98,458.01,402.06,460.04,398.61,463.19z"/>
		<path class="st3" d="M600.34,527.44c0.02-8.3-1.78-15.06-6.72-22c-17.35-24.36-33.89-49.31-50.88-73.94
			c-1.64-2.38-4.03-5.54-6.37-5.82c-3.37-0.4-7.9,0.5-10.36,2.65c-4.16,3.63-2.81,8.48,0.17,12.82
			c13.88,20.24,27.7,40.51,41.51,60.79c0.01,0.02,0.02,0.04,0.04,0.05c1.82,2.68-0.15,6.31-3.39,6.31H214.99
			c-3.26,0-5.2-3.65-3.36-6.35c4.14-6.09,7.92-11.66,11.72-17.22c10.07-14.76,20.18-29.49,30.21-44.27
			c2.82-4.16,3.47-9.09-0.43-12.32c-2.52-2.09-7.08-2.88-10.45-2.38c-2.35,0.34-4.63,3.58-6.29,5.97
			c-18.34,26.57-36.63,53.18-54.7,79.93c-1.65,2.44-2.34,5.99-2.35,9.02c-0.12,79.03-0.09,158.07-0.08,237.1
			c0,10.59,2.88,13.52,13.24,13.52c131.39,0.01,262.78,0.01,394.17,0c10.78,0,13.54-2.85,13.55-13.87
			C600.22,680.77,600.12,604.1,600.34,527.44z M580.67,747.66c0,2.25-1.82,4.07-4.07,4.07H202.97c-2.25,0-4.07-1.82-4.07-4.07
			V532.58c0-2.25,1.82-4.07,4.07-4.07H576.6c2.25,0,4.07,1.82,4.07,4.07V747.66z"/>
		<path class="st4" d="M398.61,463.19c3.45-3.15,5.37-5.17,7.56-6.85c4.17-3.18,8.56-3.02,12.3,0.53c3.97,3.76,4.69,8.64,0.96,12.69
			c-7.57,8.22-15.44,16.21-23.67,23.75c-4.16,3.81-9.22,3.13-13.34-0.91c-7.07-6.92-14.1-13.89-21-20.97
			c-4.74-4.86-4.98-10.13-1-14.26c3.93-4.08,9.2-3.89,14.29,0.51c1.23,1.06,2.49,2.07,4.83,3.99c0-3.54,0-5.8,0-8.07
			c0-24.73-0.04-49.47,0.04-74.2c0.02-6.5,4-10.61,9.66-10.51c5.38,0.1,9.07,4.08,9.36,10.19c0.1,2.15,0.03,4.3,0.03,6.45
			c0,23.01-0.01,46.03-0.01,69.04C398.61,456.89,398.61,459.2,398.61,463.19z"/>
		<path class="st4" d="M513.7,724.28c11.83-0.01,23.66,0.06,35.49-0.04c4.62-0.04,9.37,0.3,9.42,6.08c0.05,6.12-4.87,6.54-9.74,6.53
			c-23.66-0.06-47.32-0.04-70.99-0.02c-4.56,0.01-9.16-0.22-9.32-6.2c-0.17-6.1,4.37-6.39,8.99-6.37
			C489.61,724.33,501.65,724.28,513.7,724.28z"/>
		<path class="st4" d="M527.47,707.42c-7.96,0-15.92-0.05-23.88,0.01c-4.23,0.03-7.43-1.49-7.49-6.04
			c-0.06-4.55,3.24-6.34,7.34-6.36c15.92-0.09,31.85-0.08,47.77-0.02c4.1,0.02,7.46,1.71,7.48,6.24c0.02,5-3.57,6.25-7.97,6.2
			C542.97,707.36,535.22,707.42,527.47,707.42z"/>
		<path class="st4" d="M255.28,706.41c-0.01-4.3-0.7-8.77,0.26-12.85c0.58-2.45,3.49-5.57,5.8-6c1.67-0.32,5.75,3.16,5.89,5.14
			c0.66,9.2,0.71,18.5,0.02,27.69c-0.15,2.05-4.03,4.97-6.46,5.27c-1.58,0.19-4.79-3.43-5.25-5.74
			C254.68,715.57,255.29,710.93,255.28,706.41z"/>
		<path class="st4" d="M239.68,706.62c0,4.09-0.08,8.18,0.02,12.27c0.1,4.13-2.05,7.4-5.8,6.87c-2.48-0.35-6.19-3.86-6.41-6.22
			c-0.78-8.54-0.78-17.24,0-25.78c0.22-2.38,4.11-4.42,6.32-6.62c1.96,2.4,4.94,4.55,5.62,7.27
			C240.41,698.26,239.68,702.53,239.68,706.62z"/>
		<path class="st4" d="M295.28,707.26c0,3.88,0.73,7.95-0.24,11.56c-0.74,2.74-3.65,4.89-5.59,7.3c-2.23-2.17-6.16-4.19-6.37-6.55
			c-0.78-8.54-0.78-17.24,0-25.78c0.22-2.38,4.11-4.43,6.31-6.64c1.96,2.4,5,4.54,5.63,7.25
			C295.99,698.48,295.28,702.95,295.28,707.26z"/>
	</g>
	<path class="st5" d="M543.3,298.4c0-24.32,0-48.64,0-72.96c0-6.58-0.86-7.79-7.13-10.26c-45.08-17.76-90.16-35.51-135.22-53.32
		c-8.02-3.17-15.89-3.09-23.88,0.06c-45.18,17.83-90.38,35.62-135.57,53.42c-5.5,2.16-6.61,3.73-6.61,9.53
		c-0.01,48.89-0.01,97.78,0,146.67c0,5.9,1.04,7.4,6.58,9.54c39.39,15.19,78.8,30.34,118.17,45.6v-15.81
		c-35.66-13.8-71.34-27.56-107.05-41.24c-2.35-0.9-3.06-2-3.05-4.47c0.1-24.29,0.06-48.58,0.06-72.87c0-18.3,0.06-36.61-0.05-54.91
		c-0.02-2.92,0.44-3.55,3.37-2.41c41.86,16.22,83.74,32.36,125.66,48.43c2.41,0.92,3.27,2.05,3.26,4.69
		c-0.12,21.22-0.07,42.43-0.07,63.65h14.67c0-21.05-0.02-42.09-0.08-63.14c-0.01-3.12,1.05-4.38,3.81-5.43
		c27.02-10.3,53.99-20.73,80.97-31.12c14.66-5.65,29.34-11.24,43.96-17.02c3-1.19,3.58-0.59,3.56,2.52
		c-0.12,21.34-0.06,42.69-0.06,64.03c0,21.14-0.05,42.27,0.07,63.41c0.01,2.62-0.78,3.76-3.24,4.7
		c-35.48,13.6-70.93,27.28-106.38,40.95v15.82c39.15-15.16,78.33-30.24,117.51-45.34c5.82-2.25,6.76-3.61,6.77-9.76
		C543.31,347.05,543.31,322.73,543.3,298.4z M396.2,269.15c-4.99,2.03-9.14,1.99-14.17,0.02c-38.64-15.14-77.39-29.98-116.11-44.92
		c-0.79-0.31-1.57-0.65-3.25-1.35c3.75-1.49,6.81-2.72,9.89-3.93c14.88-5.86,29.76-11.71,44.62-17.6c1.65-0.65,3.11-0.86,4.9-0.17
		c40.62,15.78,81.27,31.48,121.91,47.2c0.68,0.26,1.34,0.58,2.65,1.15C429.38,256.21,412.69,262.44,396.2,269.15z M495.96,230.58
		c-8.76,3.39-17.55,6.72-26.29,10.16c-1.69,0.66-3.04,0.65-4.81-0.04c-39.14-15.19-78.33-30.27-117.5-45.38
		c-2.15-0.83-4.26-1.78-7.18-3.02c15.34-6.02,29.97-11.82,44.65-17.48c3.44-1.33,6.92-0.73,10.35,0.63
		c35.3,13.94,70.62,27.83,105.93,41.73c4.52,1.78,9.03,3.57,14.48,5.73C508.47,225.7,502.22,228.16,495.96,230.58z"/>
</g>
<g id="_x31_">
	<circle class="st6" cx="386.44" cy="263.3" r="232.52"/>
	<g class="st0">
		<polyline class="st7" points="247.45,29.71 308.19,45.58 292.09,107.21 		"/>
		<path class="st7" d="M196.58,393.58c0,0-53.07-61.3-39.78-163C175.39,88.46,301.34,46.27,301.34,46.27"/>
	</g>
	<g class="st0">
		<polyline class="st7" points="640.69,360.14 583.14,385.32 557.59,326.92 		"/>
		<path class="st7" d="M455.14,42.75c0,0,79.69,15.26,132.27,103.4c73.48,123.17,0.69,234.38,0.69,234.38"/>
	</g>
	<g class="st0">
		<path class="st8" d="M373.5,623.51c-8.77,0-16.74,0-24.68,0c-4.61-29.67,3.72-53.29,31.35-62.47
			c28.66-9.52,58.61,11.97,59.48,42.1c0.19,6.69,0.03,13.39,0.03,20.42c-8.67,0-16.65,0-25.81,0c0-6.67,0.31-13.15-0.07-19.59
			c-0.64-10.91-8.98-18.79-19.55-19c-10.92-0.21-19.55,7.54-20.52,18.7c-0.36,4.12-0.17,8.28-0.22,12.42
			C373.48,618.44,373.5,620.78,373.5,623.51z"/>
		<path class="st8" d="M334.04,633.96c0,31.04,0,61.66,0,92.32c40.04,0,79.55,0,119.47,0c0-31.25,0-61.85,0-92.32
			C413.31,633.96,373.65,633.96,334.04,633.96z M405.07,682.88c-6.26,4.62-6.59,9.85-6.32,16.15c0.05,1.04-0.17,2.1-0.31,3.53
			c-3.53,0-6.28,0-9.37,0c-0.11-2.26-0.44-4.2-0.26-6.09c0.51-5.23-0.52-9.02-5.43-12.53c-7.13-5.11-7.05-15.65-1.03-22.06
			c5.82-6.19,15.47-6.61,21.83-0.93C410.81,666.88,412.06,677.72,405.07,682.88z"/>
		<path class="st8" d="M394.15,664.18c2.53,4.09,5.28,6.57,4.97,8.59c-0.32,2.08-3.69,5.22-5.59,5.12c-1.94-0.1-5.05-3.48-5.17-5.57
			C388.24,670.27,391.23,668.04,394.15,664.18z"/>
	</g>
</g>
<g id="_x32_">
	<circle class="st6" cx="386.44" cy="263.3" r="232.52"/>
	<path class="st9" d="M174.98,360.14C114.41,210.67,199.47,30.78,386.44,30.78S663.09,226.1,597.9,360.14"/>
	<polyline class="st9" points="208.76,313.83 178.54,368.9 122.65,338.24 	"/>
</g>
<g id="_x34_" class="st0">
	<path class="st10" d="M237.4,331.59c12.06,11.77,23.87,23.3,36.26,35.4c4.99-5.03,10.74-10.74,16.39-16.54
		c3.48-3.57,7.11-6.35,12.49-4.21c5.41,2.16,5.99,6.66,5.98,11.67c-0.05,43.72-0.03,87.44-0.03,131.16c0,2.97,0,5.95,0,9.98
		c7.03,0,13.38,0,19.74,0c8.4,0,16.8-0.1,25.2,0.04c7.04,0.11,11.43,3.93,11.46,9.61c0.03,5.71-4.26,9.4-11.39,9.43
		c-17.02,0.08-34.03,0.04-51.05,0.02c-10.05-0.01-13.1-2.97-13.11-13.05c-0.04-39.2-0.01-78.4,0-117.59c0-2.29,0-4.59,0-8.8
		c-3.96,3.89-6.55,6.59-9.31,9.11c-5.17,4.73-9.77,4.86-14.75-0.08c-16.06-15.93-32.03-31.94-47.88-48.07
		c-4.65-4.72-4.71-9.24-0.26-14.34c23.92-27.43,47.9-54.81,72.07-82.03c1.93-2.17,5.35-3.7,8.29-4.17
		c14.87-2.35,29.81-4.27,44.73-6.29c9.91-1.34,13.22,1.28,14.54,11.39c2.31,17.65,15.15,29.65,31.72,29.65
		c16.6,0.01,29.41-11.9,31.85-29.6c1.44-10.41,4.61-12.8,15.05-11.42c15.57,2.06,31.17,3.85,46.68,6.29
		c3.5,0.55,7.51,2.52,9.83,5.12c23.66,26.52,47.03,53.28,70.43,80.02c5.56,6.36,5.36,10.63-0.75,16.78
		c-15.03,15.12-30.12,30.2-45.24,45.23c-6.92,6.88-10.99,6.78-18.07-0.13c-2.24-2.18-4.53-4.31-8.15-7.73c0,4.22,0,6.68,0,9.15
		c0,38.77,0.01,77.53,0.01,116.3c0,11.7-2.63,14.27-14.48,14.27c-16.8-0.01-33.6,0.04-50.41-0.02c-7.69-0.03-12.05-3.56-12-9.47
		c0.05-5.91,4.54-9.57,12.12-9.61c14.84-0.07,29.67-0.02,45.61-0.02c0-3.26,0-5.96,0-8.67c0-42.86,0-85.72,0-128.58
		c0-1.94,0.06-3.88,0.01-5.81c-0.13-4.78,1.51-9.26,6.33-9.88c3.47-0.44,8.18,0.87,10.8,3.16c6.45,5.64,12.01,12.29,17.87,18.47
		c12.32-12.72,23.89-24.67,35.95-37.13c-0.14-0.19-1.17-1.77-2.41-3.18c-19.02-21.71-37.93-43.51-57.25-64.95
		c-2.56-2.84-7-4.73-10.87-5.48c-9.06-1.75-18.33-2.4-27.47-3.78c-3.84-0.58-5.56,0.29-6.92,4.31
		c-7.42,21.91-26.41,35.5-48.74,35.44c-22.03-0.07-40.92-13.66-48.26-35.24c-1.31-3.86-2.71-5.14-6.78-4.39
		c-7.4,1.37-14.87,2.79-22.35,3.08c-6.73,0.26-10.97,3.3-15.15,8.15c-18.13,21.05-36.58,41.83-54.89,62.72
		C239.59,328.7,238.47,330.23,237.4,331.59z"/>
	<path class="st10" d="M682.06,118.5l-54.48-54.47c-4.21-4.07-10.92-4.01-15.06,0.13s-4.2,10.84-0.13,15.06l36.14,36.14h-285.6
		c-148.25,0.17-268.4,120.31-268.56,268.56c0,5.93,4.81,10.74,10.74,10.74c5.93,0,10.74-4.81,10.74-10.74
		c0.15-136.39,110.68-246.93,247.08-247.08h285.6l-36.14,36.14c-2.79,2.7-3.91,6.69-2.93,10.44c0.98,3.76,3.92,6.69,7.67,7.67
		c3.76,0.98,7.75-0.14,10.44-2.93l54.48-54.48C686.26,129.49,686.26,122.69,682.06,118.5z"/>
	<path class="st10" d="M674.47,373.17c-5.93,0-10.74,4.81-10.74,10.74c-0.15,136.39-110.68,246.93-247.08,247.08h-285.6l36.14-36.14
		c4.07-4.22,4.01-10.92-0.13-15.06c-4.14-4.14-10.84-4.2-15.06-0.13l-54.47,54.47c-4.2,4.2-4.2,10.99,0,15.19L152,703.8
		c4.22,4.07,10.92,4.01,15.06-0.13c4.14-4.14,4.2-10.85,0.13-15.06l-36.14-36.14h285.6c148.25-0.16,268.39-120.31,268.56-268.56
		C685.21,377.98,680.4,373.17,674.47,373.17z"/>
</g>
<g id="_x35_" class="st0">
	<path class="st10" d="M83.74,237.6h117.69c8.2,0,14.85-6.65,14.85-14.85v-3.1c0-28.73-18.98-53.1-45.06-61.25
		c9.06-7.96,14.79-19.63,14.79-32.61c0-23.95-19.49-43.44-43.44-43.44s-43.44,19.48-43.44,43.44c0,12.98,5.73,24.64,14.79,32.61
		c-26.08,8.15-45.06,32.52-45.06,61.25v3.1C68.88,230.96,75.53,237.6,83.74,237.6z M142.58,112.07c7.57,0,13.73,6.16,13.73,13.73
		c0,7.57-6.16,13.73-13.73,13.73c-7.57,0-13.73-6.16-13.73-13.73C128.85,118.23,135.01,112.07,142.58,112.07z M133.03,185.21h19.1
		c14.87,0,27.56,9.47,32.38,22.69h-83.86C105.47,194.68,118.16,185.21,133.03,185.21z"/>
	<path class="st10" d="M667.91,158.41c9.06-7.96,14.79-19.63,14.79-32.61c0-23.95-19.48-43.44-43.44-43.44
		c-23.95,0-43.43,19.48-43.43,43.44c0,12.98,5.73,24.64,14.79,32.61c-26.07,8.15-45.06,32.52-45.06,61.25v3.1
		c0,8.2,6.65,14.85,14.85,14.85h117.69c8.2,0,14.85-6.65,14.85-14.85v-3.1C712.96,190.93,693.98,166.56,667.91,158.41z
		 M639.26,112.07c7.57,0,13.73,6.16,13.73,13.73c0,7.57-6.16,13.73-13.73,13.73c-7.57,0-13.73-6.16-13.73-13.73
		C625.54,118.23,631.69,112.07,639.26,112.07z M597.34,207.9c4.81-13.22,17.51-22.69,32.38-22.69h19.1
		c14.87,0,27.56,9.47,32.38,22.69H597.34z"/>
	<path class="st10" d="M667.91,627.74c9.06-7.96,14.79-19.63,14.79-32.61c0-23.95-19.49-43.43-43.44-43.43
		c-23.95,0-43.43,19.49-43.43,43.43c0,12.98,5.73,24.65,14.79,32.61c-26.07,8.14-45.06,32.52-45.06,61.24v3.1
		c0,8.2,6.65,14.85,14.85,14.85h117.69c8.2,0,14.85-6.65,14.85-14.85v-3.1C712.96,660.26,693.98,635.89,667.91,627.74z
		 M639.26,581.4c7.57,0,13.73,6.16,13.73,13.73c0,7.57-6.16,13.73-13.73,13.73c-7.57,0-13.73-6.16-13.73-13.73
		C625.54,587.56,631.69,581.4,639.26,581.4z M597.34,677.23c4.81-13.22,17.51-22.69,32.38-22.69h19.1
		c14.87,0,27.56,9.47,32.38,22.69H597.34z"/>
	<path class="st10" d="M171.22,627.74c9.06-7.96,14.79-19.63,14.79-32.61c0-23.95-19.49-43.43-43.43-43.43s-43.44,19.49-43.44,43.43
		c0,12.98,5.73,24.65,14.79,32.61c-26.08,8.15-45.06,32.52-45.06,61.24v3.1c0,8.2,6.65,14.85,14.85,14.85h117.69
		c8.2,0,14.85-6.65,14.85-14.85v-3.1C216.28,660.26,197.3,635.89,171.22,627.74z M142.58,581.4c7.57,0,13.73,6.16,13.73,13.73
		c0,7.57-6.16,13.73-13.73,13.73c-7.57,0-13.73-6.16-13.73-13.73C128.85,587.56,135.01,581.4,142.58,581.4z M100.65,677.23
		c4.82-13.22,17.51-22.69,32.38-22.69h19.1c14.87,0,27.56,9.47,32.38,22.69H100.65z"/>
	<path class="st10" d="M669.26,465.87c8.2,0,14.85-6.65,14.85-14.85V339.13c0-8.2-6.65-14.85-14.85-14.85
		c-8.2,0-14.85,6.65-14.85,14.85v45.36h-45.19c-8.2,0-14.85,6.65-14.85,14.85c0,8.2,6.65,14.85,14.85,14.85h45.19v36.82
		C654.41,459.22,661.06,465.87,669.26,465.87z"/>
	<path class="st10" d="M333,120.95h41.09v46.1c0,8.2,6.65,14.85,14.85,14.85c8.2,0,14.85-6.65,14.85-14.85v-46.1h41.09
		c8.2,0,14.85-6.65,14.85-14.85c0-8.2-6.65-14.85-14.85-14.85H333c-8.2,0-14.85,6.65-14.85,14.85
		C318.15,114.3,324.8,120.95,333,120.95z"/>
	<path class="st10" d="M444.88,666.75h-41.09v-46.1c0-8.2-6.65-14.85-14.85-14.85c-8.2,0-14.85,6.65-14.85,14.85v46.1h-41.09
		c-8.2,0-14.85,6.65-14.85,14.85c0,8.2,6.65,14.85,14.85,14.85h111.88c8.2,0,14.85-6.65,14.85-14.85
		C459.74,673.4,453.09,666.75,444.88,666.75z"/>
	<path class="st10" d="M172.63,384.49h-45.19v-45.36c0-8.2-6.65-14.85-14.85-14.85c-8.2,0-14.85,6.65-14.85,14.85v111.88
		c0,8.2,6.65,14.85,14.85,14.85c8.2,0,14.85-6.65,14.85-14.85v-36.82h45.19c8.2,0,14.85-6.65,14.85-14.85
		C187.48,391.14,180.83,384.49,172.63,384.49z"/>
	<path class="st11" d="M237.1,345.65c12.06,11.77,23.87,23.3,36.26,35.4c4.99-5.03,10.74-10.74,16.39-16.54
		c3.48-3.57,7.11-6.35,12.49-4.21c5.41,2.16,5.99,6.66,5.98,11.67c-0.05,43.72-0.03,87.44-0.03,131.16c0,2.97,0,5.95,0,9.98
		c7.03,0,13.38,0,19.74,0c8.4,0,16.8-0.1,25.2,0.04c7.04,0.11,11.43,3.93,11.46,9.61c0.03,5.71-4.26,9.4-11.39,9.43
		c-17.02,0.08-34.03,0.04-51.05,0.02c-10.05-0.01-13.1-2.97-13.11-13.05c-0.04-39.2-0.01-78.4,0-117.59c0-2.29,0-4.59,0-8.8
		c-3.96,3.89-6.55,6.59-9.31,9.11c-5.17,4.73-9.77,4.86-14.75-0.08c-16.06-15.93-32.03-31.94-47.88-48.07
		c-4.65-4.72-4.71-9.24-0.26-14.34c23.92-27.43,47.9-54.81,72.07-82.03c1.93-2.17,5.35-3.7,8.29-4.17
		c14.87-2.35,29.81-4.27,44.73-6.29c9.91-1.34,13.22,1.28,14.54,11.39c2.31,17.65,15.15,29.65,31.72,29.65
		c16.6,0.01,29.41-11.9,31.85-29.6c1.44-10.41,4.61-12.8,15.05-11.42c15.57,2.06,31.17,3.85,46.68,6.29
		c3.5,0.55,7.51,2.52,9.83,5.12c23.66,26.52,47.03,53.28,70.43,80.02c5.56,6.36,5.36,10.63-0.75,16.78
		c-15.03,15.12-30.12,30.2-45.24,45.23c-6.92,6.88-10.99,6.78-18.07-0.13c-2.24-2.18-4.53-4.31-8.15-7.73c0,4.22,0,6.68,0,9.15
		c0,38.77,0.01,77.53,0.01,116.3c0,11.7-2.63,14.27-14.48,14.27c-16.8-0.01-33.6,0.04-50.41-0.02c-7.69-0.03-12.05-3.56-12-9.47
		c0.05-5.91,4.54-9.57,12.12-9.61c14.84-0.07,29.67-0.02,45.61-0.02c0-3.26,0-5.96,0-8.67c0-42.86,0-85.72,0-128.58
		c0-1.94,0.06-3.88,0.01-5.81c-0.13-4.78,1.51-9.26,6.33-9.88c3.47-0.44,8.18,0.87,10.8,3.16c6.45,5.64,12.01,12.29,17.87,18.47
		c12.32-12.72,23.89-24.67,35.95-37.13c-0.14-0.19-1.17-1.77-2.41-3.18c-19.02-21.71-37.93-43.51-57.25-64.95
		c-2.56-2.84-7-4.73-10.87-5.48c-9.06-1.75-18.33-2.4-27.47-3.78c-3.84-0.58-5.56,0.29-6.92,4.31
		c-7.42,21.91-26.41,35.5-48.74,35.44c-22.03-0.07-40.92-13.66-48.26-35.24c-1.31-3.86-2.71-5.14-6.78-4.39
		c-7.4,1.37-14.87,2.79-22.35,3.08c-6.73,0.26-10.97,3.3-15.15,8.15c-18.13,21.05-36.58,41.83-54.89,62.72
		C239.3,342.76,238.18,344.3,237.1,345.65z"/>
</g>
</svg>
