<?xml version="1.0" encoding="utf-8"?>
<!-- Generator: Adobe Illustrator 24.1.1, SVG Export Plug-In . SVG Version: 6.00 Build 0)  -->
<svg version="1.1" id="Layer_1" xmlns="http://www.w3.org/2000/svg" xmlns:xlink="http://www.w3.org/1999/xlink" x="0px" y="0px"
	 viewBox="0 0 779.6 779.6" style="enable-background:new 0 0 779.6 779.6;" xml:space="preserve">
<style type="text/css">
	.st0{display:none;}
	.st1{display:inline;fill:#184D87;}
	.st2{fill:#FFFFFF;}
	.st3{fill:#FCFCFC;}
	.st4{display:none;fill:none;stroke:#FCFCFC;stroke-width:3;stroke-miterlimit:10;}
	.st5{display:inline;fill:none;stroke:#FCFCFC;stroke-width:3;stroke-miterlimit:10;}
	.st6{display:inline;fill:none;stroke:#FDBC01;stroke-width:19;stroke-linecap:round;stroke-linejoin:round;stroke-miterlimit:10;}
	.st7{fill:#94EDFB;}
</style>
<g id="Layer_2_1_" class="st0">
	<rect x="-0.8" class="st1" width="779.6" height="779.6"/>
</g>
<g id="poly">
	<g>
		<path class="st2" d="M600.3,527.4c0-8.3-1.8-15.1-6.7-22c-17.3-24.4-33.9-49.3-50.9-73.9c-1.6-2.4-4-5.5-6.4-5.8
			c-3.4-0.4-7.9,0.5-10.4,2.6c-4.2,3.6-2.8,8.5,0.2,12.8c13.9,20.2,27.7,40.5,41.5,60.8c0,0,0,0,0,0c1.8,2.7-0.2,6.3-3.4,6.3H215
			c-3.3,0-5.2-3.6-3.4-6.4c4.1-6.1,7.9-11.7,11.7-17.2c10.1-14.8,20.2-29.5,30.2-44.3c2.8-4.2,3.5-9.1-0.4-12.3
			c-2.5-2.1-7.1-2.9-10.4-2.4c-2.4,0.3-4.6,3.6-6.3,6c-18.3,26.6-36.6,53.2-54.7,79.9c-1.6,2.4-2.3,6-2.4,9
			c-0.1,79-0.1,158.1-0.1,237.1c0,10.6,2.9,13.5,13.2,13.5c131.4,0,262.8,0,394.2,0c10.8,0,13.5-2.8,13.5-13.9
			C600.2,680.8,600.1,604.1,600.3,527.4z M580.7,747.7c0,2.3-1.8,4.1-4.1,4.1H203c-2.3,0-4.1-1.8-4.1-4.1V532.6
			c0-2.3,1.8-4.1,4.1-4.1h373.6c2.3,0,4.1,1.8,4.1,4.1V747.7z"/>
		<path class="st3" d="M513.7,724.3c11.8,0,23.7,0.1,35.5,0c4.6,0,9.4,0.3,9.4,6.1c0,6.1-4.9,6.5-9.7,6.5c-23.7-0.1-47.3,0-71,0
			c-4.6,0-9.2-0.2-9.3-6.2c-0.2-6.1,4.4-6.4,9-6.4C489.6,724.3,501.6,724.3,513.7,724.3z"/>
		<path class="st3" d="M527.5,707.4c-8,0-15.9,0-23.9,0c-4.2,0-7.4-1.5-7.5-6s3.2-6.3,7.3-6.4c15.9-0.1,31.9-0.1,47.8,0
			c4.1,0,7.5,1.7,7.5,6.2c0,5-3.6,6.3-8,6.2C543,707.4,535.2,707.4,527.5,707.4z"/>
		<path class="st3" d="M255.3,706.4c0-4.3-0.7-8.8,0.3-12.8c0.6-2.5,3.5-5.6,5.8-6c1.7-0.3,5.8,3.2,5.9,5.1c0.7,9.2,0.7,18.5,0,27.7
			c-0.1,2-4,5-6.5,5.3c-1.6,0.2-4.8-3.4-5.3-5.7C254.7,715.6,255.3,710.9,255.3,706.4z"/>
		<path class="st3" d="M239.7,706.6c0,4.1-0.1,8.2,0,12.3c0.1,4.1-2.1,7.4-5.8,6.9c-2.5-0.3-6.2-3.9-6.4-6.2
			c-0.8-8.5-0.8-17.2,0-25.8c0.2-2.4,4.1-4.4,6.3-6.6c2,2.4,4.9,4.5,5.6,7.3C240.4,698.3,239.7,702.5,239.7,706.6z"/>
		<path class="st3" d="M295.3,707.3c0,3.9,0.7,8-0.2,11.6c-0.7,2.7-3.6,4.9-5.6,7.3c-2.2-2.2-6.2-4.2-6.4-6.5
			c-0.8-8.5-0.8-17.2,0-25.8c0.2-2.4,4.1-4.4,6.3-6.6c2,2.4,5,4.5,5.6,7.3C296,698.5,295.3,703,295.3,707.3z"/>
	</g>
</g>
<g id="_x31_">
	<circle class="st4" cx="386.4" cy="263.3" r="232.5"/>
</g>
<g id="_x32_" class="st0">
	<circle class="st5" cx="386.4" cy="263.3" r="232.5"/>
	<path class="st6" d="M175,360.1C114.4,210.7,199.5,30.8,386.4,30.8s276.7,195.3,211.5,329.4"/>
	<polyline class="st6" points="208.8,313.8 178.5,368.9 122.7,338.2 	"/>
</g>
<g>
	<path class="st7" d="M323.2,348.4c0-2.6,0-4.5,0-6.3c0-50.1,0-100.1,0-150.2c0-11.4,4.2-15.7,15.5-15.7c33.5,0,67,0.3,100.6-0.2
		c11.9-0.2,16.6,6.1,16.6,16.4c-0.3,49.9-0.2,99.8-0.2,149.7c0,1.9,0,3.7,0,6.1c2,0.1,3.7,0.2,5.3,0.2c18.3,0,36.5,0,54.8,0
		c4.4,0,8,1.3,10.7,4.8c3.5,4.4,3.2,9.6-0.8,13.5C483.9,407.8,442,449,400.1,490.1c-7.7,7.6-13.4,7.6-21.1,0.2
		c-40.3-39.2-80.6-78.3-120.9-117.5c-1.1-1.1-2.3-2.2-3.4-3.3c-3.9-3.9-5.4-8.5-3.3-13.8c2.2-5.4,6.7-7.3,12.1-7.3
		c17.9-0.1,35.9,0,53.8,0C319.2,348.4,320.9,348.4,323.2,348.4z M483,374.8c-13.5,0-25.7,0-37.9,0c-7.6,0-12.5-3.5-14.7-10.7
		c-0.9-3-1.2-6.2-1.2-9.3c-0.1-48.8-0.1-97.6-0.1-146.4c0-1.8,0-3.7,0-5.6c-26.7,0-52.7,0-79.3,0c0,2,0,3.9,0,5.7
		c0,47.5,0,95.1,0,142.6c0,2.4,0.1,4.7-0.1,7.1c-0.7,10.9-6.8,16.6-17.5,16.6c-3.6,0-7.2,0-10.9,0c-8.1,0-16.2,0-25.5,0
		c31.8,31.1,62.6,61.3,93.6,91.7C420.7,435.9,451.4,405.8,483,374.8z"/>
	<path class="st7" d="M389.4,83.3c-17.1,0-34.3,0.1-51.4,0c-8.1,0-14-4.9-14.6-11.8c-0.8-8.4,5.3-14.8,14.4-14.9
		c12.4-0.1,24.8,0,37.2,0c22,0,44,0,66,0c8.2,0,14.3,5.2,14.7,12.3c0.5,8.3-5.3,14.3-14.4,14.4c-14.6,0.1-29.2,0-43.8,0
		C394.7,83.3,392.1,83.3,389.4,83.3z"/>
	<path class="st7" d="M389.4,136.2c17.1,0,34.3-0.1,51.4,0c7.8,0,13.6,4.4,14.7,10.7c1.4,7.9-4.2,15.1-12.3,16
		c-1.2,0.1-2.5,0.1-3.8,0.1c-33.3,0-66.6,0-100,0c-2.6,0-5.4-0.3-7.8-1.2c-6-2.3-9.1-7.9-8.4-14.3c0.7-5.6,5.7-10.4,11.9-11
		c3.7-0.4,7.5-0.2,11.3-0.2C360.8,136.2,375.1,136.2,389.4,136.2z"/>
	<path class="st7" d="M389.4,96.5c17.3,0,34.6-0.1,51.9,0c9.1,0.1,14.7,5.7,14.4,13.8c-0.2,6.2-4.9,11.4-11,12.3
		c-1.2,0.2-2.5,0.3-3.8,0.3c-34.3,0-68.5,0-102.8,0c-8.6,0-14.3-4.7-14.8-12c-0.6-7.7,4.4-13.8,12.4-14.2c7.7-0.4,15.4-0.2,23.1-0.2
		C369,96.5,379.2,96.5,389.4,96.5z"/>
</g>
</svg>
