<?xml version="1.0" encoding="utf-8"?>
<!-- Generator: Adobe Illustrator 24.1.1, SVG Export Plug-In . SVG Version: 6.00 Build 0)  -->
<svg version="1.1" xmlns="http://www.w3.org/2000/svg" xmlns:xlink="http://www.w3.org/1999/xlink" x="0px" y="0px"
	 viewBox="0 0 779.59 779.59" style="enable-background:new 0 0 779.59 779.59;" xml:space="preserve">
<style type="text/css">
	.st0{display:none;}
	.st1{display:inline;fill:#184D87;}
	.st2{fill:#FFFFFF;}
	.st3{fill:#FCFCFC;}
	.st4{display:none;fill:none;stroke:#FCFCFC;stroke-width:3;stroke-miterlimit:10;}
	.st5{fill:none;stroke:#94EDFB;stroke-width:19;stroke-linecap:round;stroke-linejoin:round;stroke-miterlimit:10;}
	.st6{fill:none;stroke:#FCFCFC;stroke-width:3;stroke-miterlimit:10;}
	.st7{display:inline;fill:none;stroke:#FDBC01;stroke-width:19;stroke-linecap:round;stroke-linejoin:round;stroke-miterlimit:10;}
</style>
<g id="Layer_2" class="st0">
	<rect x="-0.81" class="st1" width="779.59" height="779.59"/>
</g>
<g id="poly">
	<g>
		<path class="st2" d="M237.4,245.59c1.07-1.35,2.19-2.89,3.44-4.32c18.32-20.89,36.76-41.67,54.89-62.72
			c4.18-4.85,8.42-7.89,15.15-8.15c7.48-0.29,14.96-1.71,22.35-3.08c4.07-0.75,5.47,0.52,6.78,4.39
			c7.34,21.57,26.23,35.17,48.26,35.24c22.33,0.07,41.33-13.52,48.74-35.44c1.36-4.03,3.08-4.89,6.92-4.31
			c9.14,1.38,18.41,2.03,27.47,3.78c3.87,0.75,8.31,2.64,10.87,5.48c19.32,21.44,38.23,43.24,57.25,64.95
			c1.23,1.41,2.26,2.99,2.41,3.18c-12.06,12.46-23.64,24.41-35.95,37.13c-5.86-6.18-11.42-12.83-17.87-18.47
			c-2.62-2.29-7.32-3.6-10.8-3.16c-4.82,0.62-6.45,5.1-6.33,9.88c0.05,1.94-0.01,3.88-0.01,5.81c0,42.86,0,85.72,0,128.58
			c0,2.71,0,5.42,0,8.67c-15.93,0-30.77-0.05-45.61,0.02c-7.58,0.03-12.07,3.7-12.12,9.61c-0.05,5.91,4.31,9.44,12,9.47
			c16.8,0.06,33.6,0.01,50.41,0.02c11.85,0.01,14.48-2.57,14.48-14.27c0-38.77-0.01-77.53-0.01-116.3c0-2.47,0-4.93,0-9.15
			c3.61,3.42,5.91,5.55,8.15,7.73c7.08,6.91,11.15,7.01,18.07,0.13c15.12-15.04,30.2-30.11,45.24-45.23
			c6.11-6.14,6.31-10.42,0.75-16.78c-23.4-26.74-46.78-53.51-70.43-80.02c-2.33-2.61-6.34-4.57-9.83-5.12
			c-15.51-2.44-31.11-4.23-46.68-6.29c-10.44-1.38-13.62,1-15.05,11.42c-2.44,17.7-15.25,29.61-31.85,29.6
			c-16.57-0.01-29.41-12-31.72-29.65c-1.33-10.11-4.63-12.73-14.54-11.39c-14.92,2.02-29.86,3.94-44.73,6.29
			c-2.94,0.46-6.36,2-8.29,4.17c-24.17,27.21-48.15,54.59-72.07,82.03c-4.45,5.1-4.38,9.62,0.26,14.34
			c15.86,16.12,31.83,32.14,47.88,48.07c4.98,4.94,9.58,4.81,14.75,0.08c2.76-2.52,5.35-5.22,9.31-9.11c0,4.21,0,6.51,0,8.8
			c0,39.2-0.03,78.4,0,117.59c0.01,10.07,3.06,13.04,13.11,13.05c17.02,0.02,34.04,0.06,51.05-0.02c7.13-0.03,11.42-3.72,11.39-9.43
			c-0.03-5.69-4.42-9.5-11.46-9.61c-8.4-0.13-16.8-0.04-25.2-0.04c-6.36,0-12.71,0-19.74,0c0-4.03,0-7,0-9.98
			c0-43.72-0.02-87.44,0.03-131.16c0.01-5.01-0.57-9.52-5.98-11.67c-5.37-2.14-9.01,0.65-12.49,4.21
			c-5.65,5.8-11.4,11.51-16.39,16.54C261.27,268.89,249.46,257.36,237.4,245.59z M398.61,463.19c0-3.99,0-6.29,0-8.6
			c0-23.01,0.01-46.03,0.01-69.04c0-2.15,0.07-4.31-0.03-6.45c-0.28-6.12-3.97-10.1-9.36-10.19c-5.65-0.1-9.63,4.01-9.66,10.51
			c-0.09,24.73-0.04,49.47-0.04,74.2c0,2.27,0,4.53,0,8.07c-2.34-1.93-3.6-2.93-4.83-3.99c-5.09-4.4-10.35-4.6-14.29-0.51
			c-3.98,4.13-3.73,9.4,1,14.26c6.9,7.09,13.93,14.05,21,20.97c4.12,4.04,9.19,4.71,13.34,0.91c8.24-7.54,16.1-15.53,23.67-23.75
			c3.73-4.05,3.01-8.93-0.96-12.69c-3.75-3.55-8.13-3.71-12.3-0.53C403.98,458.01,402.06,460.04,398.61,463.19z"/>
		<path class="st2" d="M600.34,527.44c0.02-8.3-1.78-15.06-6.72-22c-17.35-24.36-33.89-49.31-50.88-73.94
			c-1.64-2.38-4.03-5.54-6.37-5.82c-3.37-0.4-7.9,0.5-10.36,2.65c-4.16,3.63-2.81,8.48,0.17,12.82
			c13.88,20.24,27.7,40.51,41.51,60.79c0.01,0.02,0.02,0.04,0.04,0.05c1.82,2.68-0.15,6.31-3.39,6.31H214.99
			c-3.26,0-5.2-3.65-3.36-6.35c4.14-6.09,7.92-11.66,11.72-17.22c10.07-14.76,20.18-29.49,30.21-44.27
			c2.82-4.16,3.47-9.09-0.43-12.32c-2.52-2.09-7.08-2.88-10.45-2.38c-2.35,0.34-4.63,3.58-6.29,5.97
			c-18.34,26.57-36.63,53.18-54.7,79.93c-1.65,2.44-2.34,5.99-2.35,9.02c-0.12,79.03-0.09,158.07-0.08,237.1
			c0,10.59,2.88,13.52,13.24,13.52c131.39,0.01,262.78,0.01,394.17,0c10.78,0,13.54-2.85,13.55-13.87
			C600.22,680.77,600.12,604.1,600.34,527.44z M580.67,747.66c0,2.25-1.82,4.07-4.07,4.07H202.97c-2.25,0-4.07-1.82-4.07-4.07
			V532.58c0-2.25,1.82-4.07,4.07-4.07H576.6c2.25,0,4.07,1.82,4.07,4.07V747.66z"/>
		<path class="st3" d="M237.4,245.59c12.06,11.77,23.87,23.3,36.26,35.4c4.99-5.03,10.74-10.74,16.39-16.54
			c3.48-3.57,7.11-6.35,12.49-4.21c5.41,2.16,5.99,6.66,5.98,11.67c-0.05,43.72-0.03,87.44-0.03,131.16c0,2.97,0,5.95,0,9.98
			c7.03,0,13.38,0,19.74,0c8.4,0,16.8-0.1,25.2,0.04c7.04,0.11,11.43,3.93,11.46,9.61c0.03,5.71-4.26,9.4-11.39,9.43
			c-17.02,0.08-34.03,0.04-51.05,0.02c-10.05-0.01-13.1-2.97-13.11-13.05c-0.04-39.2-0.01-78.4,0-117.59c0-2.29,0-4.59,0-8.8
			c-3.96,3.89-6.55,6.59-9.31,9.11c-5.17,4.73-9.77,4.86-14.75-0.08c-16.06-15.93-32.03-31.94-47.88-48.07
			c-4.65-4.72-4.71-9.24-0.26-14.34c23.92-27.43,47.9-54.81,72.07-82.03c1.93-2.17,5.35-3.7,8.29-4.17
			c14.87-2.35,29.81-4.27,44.73-6.29c9.91-1.34,13.22,1.28,14.54,11.39c2.31,17.65,15.15,29.65,31.72,29.65
			c16.6,0.01,29.41-11.9,31.85-29.6c1.44-10.41,4.61-12.8,15.05-11.42c15.57,2.06,31.17,3.85,46.68,6.29
			c3.5,0.55,7.51,2.52,9.83,5.12c23.66,26.52,47.03,53.28,70.43,80.02c5.56,6.36,5.36,10.63-0.75,16.78
			c-15.03,15.12-30.12,30.2-45.24,45.23c-6.92,6.88-10.99,6.78-18.07-0.13c-2.24-2.18-4.53-4.31-8.15-7.73c0,4.22,0,6.68,0,9.15
			c0,38.77,0.01,77.53,0.01,116.3c0,11.7-2.63,14.27-14.48,14.27c-16.8-0.01-33.6,0.04-50.41-0.02c-7.69-0.03-12.05-3.56-12-9.47
			c0.05-5.91,4.54-9.57,12.12-9.61c14.84-0.07,29.67-0.02,45.61-0.02c0-3.26,0-5.96,0-8.67c0-42.86,0-85.72,0-128.58
			c0-1.94,0.06-3.88,0.01-5.81c-0.13-4.78,1.51-9.26,6.33-9.88c3.47-0.44,8.18,0.87,10.8,3.16c6.45,5.64,12.01,12.29,17.87,18.47
			c12.32-12.72,23.89-24.67,35.95-37.13c-0.14-0.19-1.17-1.77-2.41-3.18c-19.02-21.71-37.93-43.51-57.25-64.95
			c-2.56-2.84-7-4.73-10.87-5.48c-9.06-1.75-18.33-2.4-27.47-3.78c-3.84-0.58-5.56,0.29-6.92,4.31
			c-7.42,21.91-26.41,35.5-48.74,35.44c-22.03-0.07-40.92-13.66-48.26-35.24c-1.31-3.86-2.71-5.14-6.78-4.39
			c-7.4,1.37-14.87,2.79-22.35,3.08c-6.73,0.26-10.97,3.3-15.15,8.15c-18.13,21.05-36.58,41.83-54.89,62.72
			C239.59,242.7,238.47,244.23,237.4,245.59z"/>
		<path class="st3" d="M398.61,463.19c3.45-3.15,5.37-5.17,7.56-6.85c4.17-3.18,8.56-3.02,12.3,0.53c3.97,3.76,4.69,8.64,0.96,12.69
			c-7.57,8.22-15.44,16.21-23.67,23.75c-4.16,3.81-9.22,3.13-13.34-0.91c-7.07-6.92-14.1-13.89-21-20.97
			c-4.74-4.86-4.98-10.13-1-14.26c3.93-4.08,9.2-3.89,14.29,0.51c1.23,1.06,2.49,2.07,4.83,3.99c0-3.54,0-5.8,0-8.07
			c0-24.73-0.04-49.47,0.04-74.2c0.02-6.5,4-10.61,9.66-10.51c5.38,0.1,9.07,4.08,9.36,10.19c0.1,2.15,0.03,4.3,0.03,6.45
			c0,23.01-0.01,46.03-0.01,69.04C398.61,456.89,398.61,459.2,398.61,463.19z"/>
		<path class="st3" d="M513.7,724.28c11.83-0.01,23.66,0.06,35.49-0.04c4.62-0.04,9.37,0.3,9.42,6.08c0.05,6.12-4.87,6.54-9.74,6.53
			c-23.66-0.06-47.32-0.04-70.99-0.02c-4.56,0.01-9.16-0.22-9.32-6.2c-0.17-6.1,4.37-6.39,8.99-6.37
			C489.61,724.33,501.65,724.28,513.7,724.28z"/>
		<path class="st3" d="M527.47,707.42c-7.96,0-15.92-0.05-23.88,0.01c-4.23,0.03-7.43-1.49-7.49-6.04
			c-0.06-4.55,3.24-6.34,7.34-6.36c15.92-0.09,31.85-0.08,47.77-0.02c4.1,0.02,7.46,1.71,7.48,6.24c0.02,5-3.57,6.25-7.97,6.2
			C542.97,707.36,535.22,707.42,527.47,707.42z"/>
		<path class="st3" d="M255.28,706.41c-0.01-4.3-0.7-8.77,0.26-12.85c0.58-2.45,3.49-5.57,5.8-6c1.67-0.32,5.75,3.16,5.89,5.14
			c0.66,9.2,0.71,18.5,0.02,27.69c-0.15,2.05-4.03,4.97-6.46,5.27c-1.58,0.19-4.79-3.43-5.25-5.74
			C254.68,715.57,255.29,710.93,255.28,706.41z"/>
		<path class="st3" d="M239.68,706.62c0,4.09-0.08,8.18,0.02,12.27c0.1,4.13-2.05,7.4-5.8,6.87c-2.48-0.35-6.19-3.86-6.41-6.22
			c-0.78-8.54-0.78-17.24,0-25.78c0.22-2.38,4.11-4.42,6.32-6.62c1.96,2.4,4.94,4.55,5.62,7.27
			C240.41,698.26,239.68,702.53,239.68,706.62z"/>
		<path class="st3" d="M295.28,707.26c0,3.88,0.73,7.95-0.24,11.56c-0.74,2.74-3.65,4.89-5.59,7.3c-2.23-2.17-6.16-4.19-6.37-6.55
			c-0.78-8.54-0.78-17.24,0-25.78c0.22-2.38,4.11-4.43,6.31-6.64c1.96,2.4,5,4.54,5.63,7.25
			C295.99,698.48,295.28,702.95,295.28,707.26z"/>
	</g>
</g>
<g id="_x31_">
	<circle class="st4" cx="386.44" cy="263.3" r="232.52"/>
	<g>
		<polyline class="st5" points="247.45,29.71 308.19,45.58 292.09,107.21 		"/>
		<path class="st5" d="M196.58,393.58c0,0-53.07-61.3-39.78-163C175.39,88.46,301.34,46.27,301.34,46.27"/>
	</g>
	<g>
		<polyline class="st5" points="640.69,360.14 583.14,385.32 557.59,326.92 		"/>
		<path class="st5" d="M455.14,42.75c0,0,79.69,15.26,132.27,103.4c73.48,123.17,0.69,234.38,0.69,234.38"/>
	</g>
</g>
<g id="_x32_" class="st0">
	<circle class="st6" cx="386.44" cy="263.3" r="232.52"/>
	<path class="st7" d="M174.98,360.14C114.41,210.67,199.47,30.78,386.44,30.78S663.09,226.1,597.9,360.14"/>
	<polyline class="st7" points="208.76,313.83 178.54,368.9 122.65,338.24 	"/>
</g>
</svg>
