<?xml version="1.0" encoding="utf-8"?>
<!-- Generator: Adobe Illustrator 14.0.0, SVG Export Plug-In . SVG Version: 6.00 Build 43363)  -->
<!DOCTYPE svg PUBLIC "-//W3C//DTD SVG 1.1//EN" "http://www.w3.org/Graphics/SVG/1.1/DTD/svg11.dtd">
<svg version="1.1" xmlns="http://www.w3.org/2000/svg" xmlns:xlink="http://www.w3.org/1999/xlink" x="0px" y="0px" width="200px"
	 height="200px" viewBox="0 0 200 200" enable-background="new 0 0 200 200" xml:space="preserve">
<g id="Layer_2" display="none">
	<path display="inline" fill="#FFFFFF" stroke="#000000" stroke-width="0.5" stroke-linecap="round" stroke-linejoin="round" d="
		M3.33,34.097c0,0-0.063-12.689,11.171-12.986c11.234-0.296,161.476,0,172.163,0c10.672,0,10.672,12.22,10.672,12.22v136.835
		c0,0,0.266,13.264-10.672,13.194c-10.937-0.07-160.991,0-172.163,0c-11.171,0-11.171-13.194-11.171-13.194V34.097z M14.5,169.87
		l172.163,0.296l-0.234-96.155H14.5V169.87z M186.663,33.331H14.5v29.8h171.928L186.663,33.331z"/>
	<path display="inline" fill="#FFFFFF" stroke="#000000" stroke-width="0.5" stroke-linecap="round" stroke-linejoin="round" d="
		M144.368,42.766c4.063,0,8.125,0,12.188,0c0,4.299,0,8.599,0,12.898c-4.063,0-8.125,0-12.188,0
		C144.368,51.365,144.368,47.065,144.368,42.766z M148.024,51.591c1.625,0,3.25,0,4.875,0c0-1.584,0-3.168,0-4.752
		c-1.625,0-3.25,0-4.875,0C148.024,48.423,148.024,50.007,148.024,51.591z"/>
	
		<polygon display="inline" fill="#FFFFFF" stroke="#000000" stroke-width="0.5" stroke-linecap="round" stroke-linejoin="round" points="
		167.523,42.766 170.586,46.16 173.633,42.766 176.68,45.481 173.633,48.875 176.68,52.27 174.242,55.664 171.195,52.27 
		168.133,55.664 165.086,52.949 168.133,49.554 165.086,46.16 	"/>
	<path display="inline" fill="#FFFFFF" stroke="#000000" stroke-width="0.5" stroke-linecap="round" stroke-linejoin="round" d="
		M124.854,51.591c3.452,0,10.358,0,10.358,0v4.073h-10.358C124.854,55.664,124.854,52.949,124.854,51.591z"/>
</g>
<g id="Layer_3" display="none">
	<rect x="18.625" y="78.25" display="inline" fill="#FFFFFF" width="34.25" height="22.25"/>
	<rect x="61.875" y="78.25" display="inline" fill="#FFFFFF" width="34.25" height="22.25"/>
	<rect x="105.875" y="78.25" display="inline" fill="#FFFFFF" width="34.25" height="22.25"/>
	<rect x="147.125" y="78.25" display="inline" fill="#FFFFFF" width="34.25" height="22.25"/>
	<rect x="18.625" y="108.5" display="inline" fill="#FFFFFF" width="34.25" height="22.25"/>
	<rect x="61.875" y="108.5" display="inline" fill="#FFFFFF" width="34.25" height="22.25"/>
	<rect x="105.875" y="108.5" display="inline" fill="#FFFFFF" width="34.25" height="22.25"/>
	<rect x="147.125" y="108.5" display="inline" fill="#FFFFFF" width="34.25" height="22.25"/>
	<rect x="18.625" y="139.75" display="inline" fill="#FFFFFF" width="34.25" height="22.25"/>
	<rect x="61.875" y="139.75" display="inline" fill="#FFFFFF" width="34.25" height="22.25"/>
	<rect x="105.875" y="139.75" display="inline" fill="#FFFFFF" width="34.25" height="22.25"/>
	<rect x="147.125" y="139.75" display="inline" fill="#FFFFFF" width="34.25" height="22.25"/>
</g>
<g id="Layer_4">
	<path fill="#FFFFFF" stroke="#000000" stroke-width="0.5" d="M60.407,101.752c0,6.969,6.36,12.619,14.206,12.619H183.13
		c7.844,0,14.205-5.65,14.205-12.619v-3.505c0-6.969-6.361-12.618-14.205-12.618H74.613c-7.846,0-14.206,5.649-14.206,12.618
		V101.752z"/>
	<circle fill="#FFFFFF" stroke="#000000" stroke-width="0.5" cx="21.972" cy="100.626" r="18.667"/>
	<path fill="#FFFFFF" stroke="#000000" stroke-width="0.5" d="M60.407,49.097c0,6.969,6.36,12.619,14.206,12.619H183.13
		c7.844,0,14.205-5.65,14.205-12.619v-3.505c0-6.969-6.361-12.618-14.205-12.618H74.613c-7.846,0-14.206,5.649-14.206,12.618V49.097
		z"/>
	<circle fill="#FFFFFF" stroke="#000000" stroke-width="0.5" cx="21.972" cy="47.345" r="18.667"/>
	<path fill="#FFFFFF" stroke="#000000" stroke-width="0.5" d="M60.407,156.418c0,6.971,6.36,12.62,14.206,12.62H183.13
		c7.844,0,14.205-5.649,14.205-12.62v-3.504c0-6.969-6.361-12.618-14.205-12.618H74.613c-7.846,0-14.206,5.649-14.206,12.618
		V156.418z"/>
	<circle fill="#FFFFFF" stroke="#000000" stroke-width="0.5" cx="21.972" cy="154.633" r="18.667"/>
</g>
</svg>
