<?xml version="1.0" encoding="utf-8"?>
<!-- Generator: Adobe Illustrator 24.1.1, SVG Export Plug-In . SVG Version: 6.00 Build 0)  -->
<svg version="1.1" id="Layer_2" xmlns="http://www.w3.org/2000/svg" xmlns:xlink="http://www.w3.org/1999/xlink" x="0px" y="0px"
	 viewBox="0 0 779.59 779.59" style="enable-background:new 0 0 779.59 779.59;" xml:space="preserve">
<style type="text/css">
	.st0{fill:#F0F4FC;}
	.st1{fill:#3B628D;}
	.st2{fill:#94EDFB;}
	.st3{fill:#FDBC01;}
</style>
<circle class="st0" cx="389.79" cy="389.79" r="389.79"/>
<path class="st1" d="M498.13,701.39c7.48-0.09,14.94-0.25,22.42-0.73c33.74-2.14,66.03-9.76,96.33-25
	c26.48-13.32,49.29-31.02,65.41-56.38c8.03-12.64,13.38-26.35,16-41.11c0.42-2.35,0.79-4.73-1.35-6.29
	c-2.13-1.55-4.37-0.52-6.45,0.58c-0.67,0.36-1.33,0.76-2,1.12c-17.16,9.24-35.02,16.51-54.38,19.71c-30.04,4.97-59.75,2-89.4-3.38
	c-19.73-3.58-39.14-8.46-58.41-13.94c-17.89-5.09-35.84-10-53.68-15.26c-36.01-10.62-72.11-20.61-109.9-22.75
	c-43.95-2.49-86.35,2.83-126.65,21.95c-12.95,6.14-25.44,12.79-37.01,21.12c-22.29,16.05-40.09,36.05-52.15,60.91
	c-1.1,2.26-2.18,4.58-0.3,6.84c1.75,2.11,4.17,1.97,6.72,1.71c19.88-1.97,39.74-4.22,59.74-4.83c38.31-1.17,75.77,4.77,112.72,14.07
	c32.02,8.07,63.75,17.28,95.74,25.48C419.75,694.99,458.5,701.48,498.13,701.39z"/>
<path class="st2" d="M506.31,665.92c8.16-0.1,16.31-0.28,24.46-0.8c36.82-2.34,72.07-10.65,105.13-27.29
	c28.91-14.54,53.8-33.85,71.39-61.54c8.77-13.79,14.6-28.75,17.46-44.87c0.45-2.56,0.86-5.17-1.47-6.87
	c-2.33-1.7-4.77-0.57-7.04,0.63c-0.74,0.39-1.45,0.82-2.18,1.22c-18.72,10.09-38.22,18.01-59.35,21.51
	c-32.79,5.42-65.21,2.18-97.57-3.69c-21.54-3.91-42.71-9.23-63.75-15.21c-19.53-5.56-39.12-10.92-58.59-16.66
	c-39.3-11.59-78.7-22.49-119.94-24.83c-47.97-2.72-94.24,3.09-138.23,23.95c-14.14,6.71-27.77,13.96-40.39,23.05
	C111.92,552.05,92.5,573.87,79.33,601c-1.2,2.47-2.38,4.99-0.33,7.46c1.91,2.3,4.55,2.15,7.34,1.87c21.7-2.15,43.37-4.61,65.2-5.27
	c41.82-1.28,82.69,5.2,123.02,15.36c34.95,8.8,69.58,18.86,104.49,27.81C420.76,658.93,463.06,666.01,506.31,665.92z"/>
<g>
	<path class="st3" d="M679.41,299.65c-0.01-17.7,0.09-35.41-0.08-53.11c-0.04-4.1,0.98-5.98,5.46-5.67
		c5.21,0.36,10.48-0.04,15.71,0.14c9.76,0.34,17.2,7.56,17.25,17.29c0.16,27.82,0.16,55.64-0.02,83.45
		c-0.06,9.86-7.72,17.25-17.67,17.63c-5.05,0.19-10.13-0.18-15.17,0.1c-4.33,0.25-5.6-1.46-5.56-5.66
		C679.52,335.78,679.42,317.71,679.41,299.65z"/>
	<path class="st3" d="M221.85,448.69c0,0-2.09-5.46-1.99-11.74c0.13-8.14,0.13-34.75-0.22-42.89c-0.12-2.64-0.15-4.37-3.62-5.01
		c-3.92-0.73-6.32-3.51-6.09-8.14c0.28-5.77,0.14-11.56,0.04-17.34c-0.05-3,1.23-4.25,4.22-4.18c5.24,0.12,10.48,0.14,15.72,0.09
		c2.8-0.02,3.9,1.36,3.89,3.99c-0.03,6.14-0.05,12.29-0.03,18.43c0.01,4.11-2.76,6.19-6.04,7.09c-3.18,0.87-3.56,2.62-3.63,5.38
		c-0.19,8.05-0.44,34.54-0.7,42.59C223.2,443.17,221.85,448.69,221.85,448.69z"/>
	<path class="st3" d="M614.52,345.24c-0.24,22.76-19.66,41.9-42.19,41.6c-23.86-0.32-42.68-19.45-42.39-43.08
		c0.29-23.09,19.71-42.26,42.5-41.93C596.15,302.17,614.78,321.39,614.52,345.24z"/>
	<path class="st1" d="M661.81,203.02c-1.27-0.01-2.53,0-3.8,0c-57.13,0-114.25,0-171.38,0c0,0.12,0,0.24,0,0.36
		c-59.28,0-118.56,0.02-177.84-0.04c-3.5,0-6.34-1.53-6.77-5.51c-0.44-4.03,1.85-6.03,5.54-6.64c1.41-0.23,2.88-0.14,4.33-0.14
		c115.31,0,230.62,0.01,345.93,0.01c0.29,0,0.58-0.02,0.86-0.03c1.33-0.06,2.94,0.11,3.52-1.47c0.62-1.69-0.59-2.66-1.74-3.58
		c-4.63-3.71-10.35-5.79-16.28-5.94c-4.77-0.12-9.55-0.15-14.32-0.02c-3.81,0.11-5.07-1.6-4.32-6.44c0.63-4.08,0.37-8.2-0.13-12.29
		c-0.31-2.54,1.16-6.33-3.38-6.24c-4.6,0.09-2.73,4.05-3.17,6.31c-0.65,3.28-0.99,6.61-0.37,9.9c1.64,8.73-0.62,9.73-10.38,8.26
		c-12.73-1.92-25.66-1.84-38.38,0.15c-9.73,1.53-10.54-0.89-9.34-8.96c0.44-2.94,0.24-5.91-0.24-8.84
		c-0.45-2.76,0.91-6.57-3.29-6.78c-3.32-0.17-3.26,2.04-3.26,4.31c0.01,2.71,0.01,5.42-0.03,8.13
		c-0.23,13.94,2.12,12.52-12.54,12.51c-88.76-0.04-177.53-0.02-266.29-0.02c-7.27,0-7.28,0.02-7.28,7.57c0,47.91,0,95.81,0,143.72
		c0,1.81-0.03,3.62-0.08,5.42c-0.05,1.75-1.06,2.61-2.75,2.68c-1.77,0.07-3.35-0.36-3.58-2.43c-0.19-1.79-0.14-3.61-0.14-5.42
		c0-48.27-0.07-96.53,0.1-144.8c0.02-5.08-1.16-6.91-6.56-6.86c-28.38,0.24-56.76,0.08-85.15,0.12
		c-17.97,0.03-29.66,11.57-29.55,29.44c0.11,18.98,0.81,37.95,0.69,56.93c-0.12,20.31,5.89,39.55,10.46,58.91
		c2.18,9.21,5.21,18.73,9.85,27.49c2.32,4.39,4.94,6.17,9.46,6.16c8.32-0.02,16.63,0.01,24.95,0.01c7.87-0.01,8.05-0.02,7.94-7.97
		c-0.05-3.84,0.84-5.52,5.1-5.36c8.49,0.31,16.99,0.07,25.49,0.07c4.25,0,7.46,0.52,6.05,6.42c-0.5,2.08-0.11,5.84,3.13,6.65
		c4.87,1.22,5.06-2.11,5.06-5.76c-0.05-50.43-0.02-100.86-0.01-151.29c0-1.63-0.05-3.26,0.12-4.87c0.23-2.12,1.98-2.42,3.61-2.42
		c1.58,0,2.76,0.78,2.75,2.64c-0.01,1.63,0.04,3.25,0.04,4.88c0.01,47.91,0.01,95.81,0.01,143.72c0,13.32,0.01,12.97,13.51,13.44
		c7.27,0.26,11.56-2.88,14.6-8.89c3.04-6.02,4.7-12.48,6.45-18.94c5.03-18.59,21.98-32.62,40.6-32.74
		c35.97-0.25,71.95-0.27,107.93,0.03c18.62,0.16,33.56,14.68,33.76,32.82c0.33,29.82,0.27,59.66,0,89.48
		c-0.13,15.02-10.67,27.64-25.16,31.67c-4.82,1.34-9.68,1.1-14.54,1.1c-98.71,0.01-197.41,0.05-296.12-0.12
		c-7.9-0.01-14.79,1.62-20.66,6.89c-1.67,1.5-4.35,2.87-3.2,5.65c1,2.42,3.72,1.85,5.78,1.85c33.25-0.04,66.51-0.21,99.76-0.22
		c82.26-0.04,164.51-0.01,246.77,0.01c1.79,0,3.67-0.02,5.36,0.47c2.87,0.83,4.7,2.88,4.41,6.02c-0.3,3.28-2.21,5.25-5.64,5.43
		c-1.26,0.07-2.53,0.04-3.8,0.04c-77.19,0-154.39,0.01-231.58,0.01c-39.23,0-78.46-0.01-117.69,0c-6.83,0-9.33,1.91-9.37,7.64
		c-0.1,14.46,0.1,71.59,0.1,71.59l111.72-0.09c0,0,154.1,46.83,266.52,46.83s188.2-47.16,188.2-47.16l-1.74-0.01
		c0,0,0.53-235.3,0.54-346.48C670.96,203.2,670.85,203.09,661.81,203.02z M571.31,293.89c28.21,0.07,51.2,22.36,51.05,49.51
		c-0.15,28.16-22.29,51.01-49.55,51.12c-28.05,0.11-50.77-22.49-50.7-50.44C522.2,316.54,544.46,293.82,571.31,293.89z
		 M631.66,516.03c-0.32,11.5-7.79,18.83-19.31,18.9c-13.37,0.07-26.75,0.02-40.12,0.02c-8.25,0-16.5-0.13-24.74-0.12
		c-4.95,0-9.89,0.06-14.84,0.22c-13.16,0.43-19.59-9.15-19.81-19.29c-0.1-4.52,0.22-9.05-0.08-13.55c-0.31-4.6,1.57-5.84,5.99-5.81
		c28.37,0.14,56.75,0.05,85.12,0.04c7.59,0,15.18,0.11,22.77-0.07c3.73-0.09,5.25,1.28,5.1,5.05
		C631.54,506.27,631.79,511.15,631.66,516.03z"/>
</g>
</svg>
