<?xml version="1.0" encoding="utf-8"?>
<!-- Generator: Adobe Illustrator 24.1.1, SVG Export Plug-In . SVG Version: 6.00 Build 0)  -->
<svg version="1.1" xmlns="http://www.w3.org/2000/svg" xmlns:xlink="http://www.w3.org/1999/xlink" x="0px" y="0px"
	 viewBox="0 0 779.59 779.59" style="enable-background:new 0 0 779.59 779.59;" xml:space="preserve">
<style type="text/css">
	.st0{fill:#F0F4FC;}
	.st1{display:none;}
	.st2{display:inline;fill:#3B628D;}
	.st3{fill:#3B628D;}
	.st4{fill:#94EDFB;}
	.st5{fill:#FDBC01;}
</style>
<g id="Layer_3">
	<path class="st0" d="M688.32,779.59H91.27C40.86,779.59,0,738.73,0,688.32V91.27C0,40.86,40.86,0,91.27,0h597.05
		c50.4,0,91.27,40.86,91.27,91.27v597.05C779.59,738.73,738.73,779.59,688.32,779.59z"/>
	<g class="st1">
		<path class="st2" d="M688.32,10c44.81,0,81.27,36.46,81.27,81.27v597.05c0,44.81-36.46,81.27-81.27,81.27H91.27
			c-44.81,0-81.27-36.46-81.27-81.27V91.27C10,46.46,46.46,10,91.27,10H688.32 M688.32,0H91.27C40.86,0,0,40.86,0,91.27v597.05
			c0,50.4,40.86,91.27,91.27,91.27h597.06c50.4,0,91.27-40.86,91.27-91.27V91.27C779.59,40.86,738.73,0,688.32,0L688.32,0z"/>
	</g>
</g>
<g id="Layer_2">
	<path class="st3" d="M502.15,704.39c8.51-0.1,17.01-0.29,25.51-0.83c38.4-2.44,75.16-11.11,109.64-28.46
		c30.14-15.16,56.1-35.3,74.45-64.17c9.14-14.38,15.22-29.99,18.21-46.79c0.47-2.67,0.9-5.39-1.54-7.16
		c-2.43-1.77-4.98-0.59-7.34,0.66c-0.77,0.41-1.51,0.86-2.27,1.27c-19.53,10.52-39.86,18.79-61.89,22.43
		c-34.19,5.65-68,2.28-101.75-3.85c-22.46-4.08-44.54-9.62-66.48-15.87c-20.37-5.8-40.79-11.38-61.1-17.37
		c-40.99-12.08-82.07-23.45-125.08-25.89c-50.02-2.84-98.27,3.22-144.15,24.98c-14.74,6.99-28.96,14.56-42.12,24.04
		c-25.37,18.27-45.62,41.03-59.36,69.32c-1.25,2.57-2.48,5.21-0.35,7.78c1.99,2.4,4.75,2.24,7.65,1.95
		c22.63-2.24,45.23-4.8,67.99-5.5c43.61-1.34,86.23,5.43,128.29,16.02c36.44,9.18,72.56,19.67,108.97,29
		C412.93,697.1,457.04,704.49,502.15,704.39z"/>
	<path class="st4" d="M511.45,664.02c9.29-0.11,18.56-0.32,27.84-0.91c41.91-2.66,82.02-12.13,119.66-31.06
		c32.9-16.55,61.23-38.53,81.25-70.04c9.98-15.7,16.62-32.73,19.87-51.07c0.52-2.91,0.98-5.88-1.68-7.82
		c-2.65-1.93-5.43-0.65-8.01,0.72c-0.84,0.44-1.65,0.94-2.48,1.39c-21.31,11.48-43.5,20.5-67.55,24.48
		c-37.32,6.17-74.22,2.48-111.05-4.2c-24.51-4.45-48.62-10.5-72.55-17.32c-22.23-6.32-44.52-12.43-66.68-18.96
		c-44.73-13.19-89.57-25.6-136.51-28.26c-54.59-3.1-107.26,3.52-157.32,27.26c-16.09,7.63-31.6,15.89-45.97,26.23
		c-27.69,19.94-49.79,44.78-64.78,75.66c-1.36,2.81-2.71,5.68-0.38,8.49c2.17,2.62,5.18,2.44,8.35,2.13c24.7-2.45,49.36-5.24,74.2-6
		c47.59-1.46,94.12,5.92,140.01,17.48c39.78,10.02,79.19,21.46,118.93,31.65C414.09,656.06,462.22,664.12,511.45,664.02z"/>
	<g>
		<path class="st5" d="M708.47,247.15c-0.01-20.15,0.1-40.3-0.09-60.44c-0.04-4.67,1.11-6.8,6.21-6.45
			c5.94,0.41,11.92-0.04,17.88,0.16c11.1,0.38,19.57,8.61,19.64,19.68c0.18,31.66,0.18,63.32-0.02,94.98
			c-0.07,11.22-8.79,19.63-20.11,20.07c-5.75,0.22-11.53-0.21-17.26,0.12c-4.93,0.28-6.37-1.66-6.32-6.44
			C708.6,288.27,708.48,267.71,708.47,247.15z"/>
		<path class="st5" d="M187.7,416.78c0,0-2.38-6.22-2.26-13.36c0.15-9.27,0.15-39.55-0.26-48.81c-0.13-3.01-0.17-4.97-4.12-5.71
			c-4.46-0.83-7.19-3.99-6.93-9.27c0.32-6.56,0.15-13.16,0.05-19.74c-0.06-3.42,1.41-4.84,4.8-4.76c5.96,0.14,11.93,0.16,17.89,0.1
			c3.18-0.03,4.44,1.55,4.43,4.54c-0.03,6.99-0.06,13.98-0.04,20.98c0.01,4.68-3.14,7.05-6.87,8.07c-3.62,0.99-4.05,2.98-4.13,6.12
			c-0.22,9.16-0.5,39.32-0.79,48.48C189.23,410.49,187.7,416.78,187.7,416.78z"/>
		<path class="st5" d="M634.62,299.03c-0.28,25.91-22.37,47.69-48.02,47.35c-27.15-0.36-48.58-22.14-48.25-49.03
			c0.33-26.28,22.44-48.09,48.37-47.72C613.7,250.02,634.91,271.89,634.62,299.03z"/>
		<path class="st3" d="M688.44,137.17c-1.44-0.01-2.88,0-4.32,0c-65.02,0-130.04,0-195.06,0c0,0.14,0,0.27,0,0.41
			c-67.47,0-134.94,0.02-202.4-0.05c-3.98,0-7.21-1.75-7.7-6.27c-0.5-4.59,2.1-6.86,6.31-7.55c1.61-0.27,3.28-0.15,4.93-0.15
			c131.24,0,262.48,0.01,393.72,0.01c0.33,0,0.65-0.02,0.98-0.04c1.51-0.07,3.35,0.12,4.01-1.67c0.71-1.93-0.67-3.03-1.98-4.08
			c-5.27-4.22-11.78-6.59-18.53-6.76c-5.43-0.13-10.87-0.17-16.3-0.02c-4.33,0.12-4.92-7.33-4.92-7.33l-0.15-14.99
			c0,0,0.84-6.1-3.85-6.1s-3.61,6.18-3.61,6.18l-0.42,12.27c0,0,2.77,9.34-11.81,9.4c-14.58,0.06-33.91,1.06-43.69,0.17
			c-9.78-0.88-10.63-10.19-10.63-10.19l-0.27-12.07c0,0-0.34-5.68-3.75-5.72c-3.41-0.03-3.71,2.32-3.71,4.9
			c0.01,3.09,0.02,6.17-0.04,9.26c-0.26,15.87,2.41,14.25-14.27,14.24c-101.03-0.05-202.05-0.02-303.08-0.02
			c-8.28,0-8.29,0.02-8.29,8.61c0,54.52,0,109.05,0,163.57c0,2.06-0.03,4.11-0.09,6.17c-0.06,1.99-1.21,2.97-3.13,3.05
			c-2.02,0.08-3.82-0.41-4.07-2.77c-0.22-2.04-0.16-4.11-0.16-6.16c-0.01-54.94-0.08-109.87,0.12-164.81
			c0.02-5.78-1.33-7.87-7.47-7.81c-32.3,0.28-64.61,0.09-96.91,0.14c-20.45,0.03-33.75,13.17-33.64,33.51
			c0.12,21.6,0.92,43.2,0.79,64.79c-0.14,23.12,6.7,45.01,11.91,67.05c2.48,10.48,5.93,21.32,11.21,31.29
			c2.64,4.99,5.62,7.02,10.77,7.01c9.46-0.02,18.93,0.01,28.39,0.01c8.96-0.01,9.16-0.02,9.03-9.07c-0.06-4.37,0.96-6.28,5.81-6.11
			c9.66,0.35,19.34,0.09,29.01,0.08c4.84,0,8.49,0.59,6.89,7.3c-0.57,2.37-0.13,6.65,3.56,7.57c5.55,1.39,5.76-2.4,5.75-6.55
			c-0.06-57.4-0.03-114.8-0.01-172.19c0-1.85-0.06-3.71,0.14-5.55c0.26-2.42,2.25-2.76,4.11-2.75c1.8,0,3.14,0.88,3.13,3
			c-0.01,1.85,0.05,3.7,0.05,5.55c0.01,54.52,0.01,109.05,0.02,163.57c0,15.16,0.01,14.76,15.37,15.3
			c8.28,0.29,13.16-3.28,16.61-10.12c3.45-6.85,5.35-14.21,7.34-21.55c5.72-21.16,25.02-37.12,46.2-37.27
			c40.94-0.28,81.89-0.31,122.83,0.03c21.19,0.18,38.19,16.71,38.42,37.35c0.38,33.94,0.31,67.9,0,101.84
			c-0.15,17.09-12.14,31.46-28.64,36.04c-5.48,1.52-11.01,1.25-16.55,1.25c-112.34,0.01-224.68,0.06-337.03-0.14
			c-8.99-0.02-16.83,1.85-23.51,7.84c-1.9,1.7-4.95,3.26-3.64,6.43c1.14,2.76,4.23,2.1,6.58,2.1c37.85-0.04,75.69-0.23,113.54-0.25
			c93.62-0.04,187.24-0.01,280.86,0.01c2.04,0,4.18-0.03,6.1,0.53c3.27,0.95,5.35,3.28,5.02,6.85c-0.34,3.74-2.52,5.98-6.42,6.18
			c-1.44,0.08-2.88,0.05-4.32,0.05c-87.86,0-175.72,0.01-263.57,0.01c-44.65,0-89.3-0.01-133.95,0c-7.78,0-10.62,2.17-10.67,8.7
			c-0.11,16.46,0.11,81.48,0.11,81.48l127.16-0.1c0,0,175.39,53.29,303.34,53.29s214.2-53.68,214.2-53.68l-1.98-0.01
			c0,0,0.61-267.81,0.61-394.34C698.85,137.37,698.72,137.25,688.44,137.17z M585.44,240.59c32.11,0.08,58.27,25.45,58.1,56.35
			c-0.17,32.05-25.37,58.05-56.39,58.18c-31.93,0.13-57.78-25.6-57.7-57.41C529.53,266.38,554.88,240.52,585.44,240.59z
			 M654.12,493.42c-0.36,13.09-8.87,21.43-21.97,21.51c-15.22,0.08-30.44,0.02-45.66,0.02c-9.38,0-18.77-0.15-28.16-0.14
			c-5.63,0-11.26,0.06-16.88,0.25c-14.97,0.48-22.29-10.42-22.54-21.95c-0.11-5.14,0.25-10.3-0.09-15.42
			c-0.35-5.23,1.79-6.64,6.81-6.62c32.29,0.16,64.59,0.06,96.88,0.04c8.64,0,17.28,0.13,25.92-0.08c4.25-0.1,5.98,1.45,5.8,5.74
			C653.98,482.31,654.27,487.87,654.12,493.42z"/>
	</g>
</g>
</svg>
