<?xml version="1.0" standalone="no"?>
<!DOCTYPE svg PUBLIC "-//W3C//DTD SVG 20010904//EN"
 "http://www.w3.org/TR/2001/REC-SVG-20010904/DTD/svg10.dtd">
<svg version="1.0" xmlns="http://www.w3.org/2000/svg"
 width="50.000000pt" height="50.000000pt" viewBox="0 0 50.000000 50.000000"
 preserveAspectRatio="xMidYMid meet">

<g transform="translate(0.000000,50.000000) scale(0.100000,-0.100000)"
fill="#000000" stroke="none">
<path d="M20 350 c0 -6 83 -10 230 -10 147 0 230 4 230 10 0 6 -83 10 -230 10
-147 0 -230 -4 -230 -10z"/>
<path d="M20 250 c0 -6 83 -10 230 -10 147 0 230 4 230 10 0 6 -83 10 -230 10
-147 0 -230 -4 -230 -10z"/>
<path d="M20 150 c0 -6 83 -10 230 -10 147 0 230 4 230 10 0 6 -83 10 -230 10
-147 0 -230 -4 -230 -10z"/>
<path d="M170 82 c0 -4 18 -26 40 -47 l40 -39 40 39 c22 21 40 43 40 47 0 4
-36 8 -80 8 -44 0 -80 -4 -80 -8z m102 -34 l-22 -22 -22 22 -22 22 44 0 44 0
-22 -22z"/>
</g>
</svg>
