<?xml version="1.0" encoding="utf-8"?>
<!-- Generator: Adobe Illustrator 24.1.1, SVG Export Plug-In . SVG Version: 6.00 Build 0)  -->
<svg version="1.1" id="Layer_1" xmlns="http://www.w3.org/2000/svg" xmlns:xlink="http://www.w3.org/1999/xlink" x="0px" y="0px"
	 viewBox="0 0 359.66 364.57" style="enable-background:new 0 0 359.66 364.57;" xml:space="preserve">
<style type="text/css">
	.st0{fill:#FEFEFE;}
	.st1{fill:#FCC8A5;}
	.st2{fill:#55310C;}
	.st3{fill:#036CA2;}
	.st4{fill:#0295E4;}
	.st5{fill:#046CA2;}
	.st6{fill:#C9CACA;}
	.st7{fill:#E5AF89;}
	.st8{fill:#015078;}
	.st9{fill:#57320D;}
	.st10{fill:#5A340F;}
	.st11{fill:#EAEAEA;}
	.st12{fill:#0596E4;}
</style>
<g>
	<path class="st0" d="M208.11,244.72c0.01-3.98,0.02-7.95,0.03-11.93c6.1-4.78,11.78-9.96,15.6-16.84
		c6.36-11.45,9.79-23.9,12.09-36.65c1.67-9.25,1.36-9.3,10.68-9.54c7.62-0.19,14.67-5.33,15.31-12.74
		c0.81-9.49,2.6-19.66-6.43-26.98c2.49-9.39,5.51-18.68,6.01-28.48c1.15-22.72-7.83-41.31-23.78-56.81
		c-10.06-9.78-22.31-15.14-36.28-16.94c-11.09-1.43-21.54,1.3-32.11,3.75c-16.73,3.87-29.39,13.2-37.85,28.11
		c-1.09,1.93-2.35,2.12-4.16,2.2c-19.69,0.87-33.94,18.4-31.02,37.95c1.53,10.24,2.83,20.51,4.23,30.77
		c-5.43,4.84-6.83,11.05-6.19,18c0.18,1.98-0.01,4,0.04,5.99c0.14,6.75,4.97,12.72,11.44,14.53c3.46,0.97,6.94,0.65,10.41,0.6
		c2.4-0.04,3.44,0.9,3.59,3.19c0.3,4.61,1.26,9.12,2.35,13.58c4.34,17.93,10.05,35.1,26.25,46.31c0.01,3.98,0.02,7.96,0.03,11.93
		c-0.06,3.05-0.13,6.1-0.19,9.15c-0.23,0.17-0.45,0.34-0.68,0.51c-0.62,0.08-1.24,0.16-1.54,0.83l0.03-0.07
		c-0.36,0.09-0.76,0.1-1.08,0.27c-36.2,18.12-72.46,36.15-108.57,54.45c-11.74,5.95-19.27,15.74-22.29,28.56
		c-1.65,7.01-2.32,14.26-3.54,21.38c-0.35,2.05,0.8,1.92,2.12,1.91c9.23-0.05,18.46-0.09,27.7-0.13c3.99,0,7.98,0,11.97,0
		c21.98,0,43.96,0,65.95,0c9.99,0.02,19.97,0.03,29.96,0.05c4.05,0,8.1,0,12.15,0c11.93,0,23.87,0,35.8,0c4.05,0,8.1,0,12.15,0
		c9.99-0.02,19.97-0.03,29.96-0.05c21.98,0,43.96,0,65.95,0c3.99,0,7.98,0,11.97,0c9.23,0.04,18.47,0.01,27.7,0.17
		c2.36,0.04,2.29-0.93,1.96-2.69c-0.52-2.82-0.98-5.66-1.2-8.51c-1.61-20.91-11.85-35.23-31.02-44.34
		c-30.93-14.71-61.36-30.47-92.02-45.76c-3.67-1.83-7.4-3.54-11.09-5.31l0.03,0.08c-0.28-0.71-0.93-0.74-1.54-0.84
		c-0.22-0.17-0.44-0.33-0.67-0.5C208.24,250.81,208.18,247.77,208.11,244.72z"/>
	<path class="st1" d="M255.39,130.04c9.03,7.33,7.24,17.49,6.43,26.98c-0.64,7.4-7.69,12.54-15.31,12.74
		c-9.32,0.24-9,0.29-10.68,9.54c-2.31,12.75-5.74,25.21-12.09,36.65c-3.82,6.88-9.51,12.06-15.6,16.84
		c-1.22,0.63-2.45,1.22-3.64,1.89c-12.46,7.05-25.59,8.81-39.5,5.33c-5.99-1.5-11.38-4.23-16.69-7.23
		c-16.2-11.21-21.91-28.39-26.26-46.31c-1.08-4.47-2.04-8.97-2.35-13.58c-0.15-2.29-1.19-3.22-3.59-3.19
		c-3.47,0.05-6.95,0.37-10.41-0.6c-6.47-1.81-11.3-7.78-11.44-14.53c-0.04-2,0.14-4.01-0.04-5.99c-0.63-6.95,0.76-13.15,6.19-18
		c2.53-1.04,4.95-2.32,7.72-2.75c3.33-0.53,8.02,1.71,9.7-1.12c1.59-2.69,0.38-7.04,0.4-10.67c0-0.62,0.06-1.26-0.01-1.87
		c-0.34-2.98,0.57-5.52,2.14-8.09c4.69-7.66,9.26-15.4,13.67-23.23c1.55-2.75,2.32-3.51,5.13-0.89
		c19.44,18.14,42.58,27.38,69.18,27.8c8.99,0.14,17.99,0.11,26.99-0.03c2.35-0.04,3,0.65,2.9,2.94c-0.18,3.99,0.07,8-0.1,11.99
		c-0.1,2.35,0.45,3.4,3.03,3.16C246.08,127.36,250.87,127.94,255.39,130.04z M166.23,166.76c0,3-0.08,5.99,0.02,8.99
		c0.12,3.48,2.16,5.82,5.46,5.95c4.36,0.18,8.74,0.19,13.1,0c3.28-0.15,5.44-2.78,5.4-6.03c-0.04-3.24-2.25-5.59-5.57-5.89
		c-0.99-0.09-2.01-0.12-2.99,0c-2.52,0.28-3.67-0.58-3.47-3.3c0.21-2.86,0.12-5.74,0.03-8.61c-0.13-3.79-2.58-6.17-6.12-6.09
		c-3.39,0.07-5.71,2.37-5.83,6C166.15,160.77,166.23,163.76,166.23,166.76z M177.97,205.75c3.99,0,7.97,0.06,11.96-0.02
		c3.87-0.08,6.25-2.39,6.28-5.91c0.04-3.53-2.34-6-6.15-6.04c-7.85-0.08-15.7-0.08-23.54,0c-3.87,0.04-6.24,2.38-6.28,5.91
		c-0.04,3.53,2.34,5.95,6.15,6.04C170.24,205.82,174.11,205.75,177.97,205.75z M151.25,121.78c-2.99,0-5.98-0.1-8.96,0.03
		c-3.56,0.15-5.97,2.59-6.03,5.85c-0.06,3.25,2.32,5.96,5.8,6.05c6.09,0.16,12.2,0.16,18.29,0c3.5-0.09,5.89-2.76,5.85-6.02
		c-0.04-3.26-2.45-5.73-6-5.89C157.23,121.68,154.24,121.78,151.25,121.78z M205.2,133.78c2.74,0,5.48,0,8.21,0
		c0.12,0,0.25,0,0.37,0c3.81-0.19,6.34-2.52,6.39-5.9c0.06-3.39-2.45-5.99-6.19-6.06c-5.85-0.11-11.7-0.11-17.55,0
		c-3.76,0.07-6.25,2.65-6.2,6.05c0.05,3.39,2.56,5.77,6.38,5.9C199.47,133.85,202.34,133.77,205.2,133.78z M160.22,147.17
		c-0.05-4.02-3.37-7.34-7.4-7.38c-4.19-0.05-7.62,3.39-7.57,7.58c0.05,4.18,3.59,7.55,7.76,7.39
		C157.02,154.6,160.27,151.18,160.22,147.17z M203.66,154.75c4.01,0.03,7.41-3.25,7.53-7.26c0.13-4.17-3.27-7.69-7.44-7.71
		c-4.04-0.02-7.4,3.22-7.52,7.25C196.1,151.22,199.49,154.73,203.66,154.75z"/>
	<path class="st2" d="M255.39,130.04c-4.52-2.1-9.31-2.68-14.21-2.22c-2.58,0.24-3.14-0.81-3.03-3.16c0.17-3.99-0.09-8,0.1-11.99
		c0.11-2.29-0.55-2.98-2.9-2.94c-8.99,0.14-17.99,0.17-26.99,0.03c-26.6-0.42-49.74-9.66-69.18-27.8c-2.81-2.62-3.58-1.86-5.13,0.89
		c-4.41,7.83-8.98,15.57-13.67,23.23c-1.57,2.56-2.48,5.1-2.14,8.09c0.07,0.62,0.01,1.25,0.01,1.87c-0.02,3.62,1.19,7.98-0.4,10.67
		c-1.68,2.84-6.37,0.6-9.7,1.12c-2.77,0.44-5.19,1.71-7.72,2.75c-1.4-10.26-2.7-20.53-4.23-30.77
		c-2.92-19.54,11.33-37.07,31.02-37.95c1.81-0.08,3.07-0.27,4.16-2.2c8.46-14.9,21.12-24.24,37.85-28.11
		c10.57-2.45,21.02-5.18,32.11-3.75c13.97,1.8,26.22,7.16,36.28,16.94c15.95,15.5,24.94,34.09,23.78,56.81
		C260.91,111.35,257.88,120.64,255.39,130.04z"/>
	<path class="st3" d="M210.49,255.12c3.7,1.77,7.43,3.48,11.09,5.31c30.65,15.3,61.08,31.06,92.02,45.76
		c19.17,9.11,29.41,23.43,31.02,44.34c0.22,2.85,0.67,5.7,1.2,8.51c0.33,1.76,0.39,2.73-1.96,2.69c-9.23-0.16-18.46-0.13-27.7-0.17
		c0-7.62,0.03-15.24,0-22.87c-0.02-4.47-2.22-6.99-5.99-7c-3.77,0-5.97,2.53-5.99,7c-0.03,7.62,0,15.24,0,22.87
		c-21.98,0-43.96,0-65.95,0c5.13-15.47,10.03-31.03,15.51-46.38c1.89-5.31,2.67-9.56-2.66-13.12c-1.08-0.72-1.69-2.13-2.6-3.14
		c-11.11-12.42-22.32-24.76-33.28-37.31C213.48,259.66,210.95,258.08,210.49,255.12z"/>
	<path class="st3" d="M40.29,361.57c-9.23,0.04-18.46,0.08-27.7,0.13c-1.32,0.01-2.47,0.14-2.12-1.91
		c1.22-7.12,1.89-14.36,3.54-21.38c3.02-12.82,10.55-22.61,22.29-28.56c36.12-18.3,72.37-36.33,108.57-54.45
		c0.32-0.16,0.72-0.18,1.08-0.27c0.1,0.81-0.27,1.44-0.78,2.02c-14.22,15.98-28.39,32-42.71,47.88c-1.66,1.84-2.02,3.22-1.24,5.54
		c5.74,16.97,11.34,33.99,16.98,50.99c-21.98,0-43.96,0-65.95,0c0-7.62,0.03-15.24,0-22.87c-0.02-4.47-2.22-6.99-5.99-7
		c-3.77,0-5.97,2.53-5.99,7C40.26,346.33,40.29,353.95,40.29,361.57z"/>
	<path class="st4" d="M118.21,361.57c-5.64-17-11.24-34.02-16.98-50.99c-0.78-2.32-0.42-3.7,1.24-5.54
		c14.32-15.88,28.49-31.9,42.71-47.88c0.52-0.58,0.88-1.2,0.78-2.02c0,0-0.03,0.07-0.03,0.07c0.67,0.01,1.25-0.13,1.54-0.83
		c0.23-0.17,0.45-0.34,0.68-0.51c-0.01,0.19,0.05,0.36,0.18,0.51c0.01,12.76,0.03,25.52,0.04,38.28c-0.04,1.5-0.12,2.99-0.12,4.49
		c-0.03,21.49-0.05,42.97-0.07,64.46C138.18,361.6,128.2,361.59,118.21,361.57z"/>
	<path class="st4" d="M210.49,255.12c0.46,2.95,2.99,4.53,4.71,6.5c10.96,12.55,22.17,24.89,33.28,37.31
		c0.91,1.02,1.52,2.42,2.6,3.14c5.33,3.55,4.55,7.81,2.66,13.12c-5.48,15.35-10.38,30.9-15.51,46.38
		c-9.99,0.02-19.97,0.03-29.96,0.05c-0.02-2.62-0.06-5.25-0.06-7.87c-0.05-20.36-0.09-40.72-0.13-61.09
		c0.01-12.75,0.03-25.51,0.04-38.26c0.13-0.16,0.19-0.33,0.19-0.54c0.22,0.17,0.44,0.33,0.67,0.5c0.29,0.7,0.86,0.87,1.54,0.84
		L210.49,255.12z"/>
	<path class="st5" d="M196.12,361.62c-11.93,0-23.87,0-35.8,0c2-17.97,4-35.93,6-53.9c7.94,0,15.87,0,23.81,0
		c0.41,3.34,0.86,6.68,1.22,10.02C192.95,332.37,194.53,347,196.12,361.62z"/>
	<path class="st6" d="M166.32,307.73c-2,17.97-4,35.93-6,53.9c-4.05,0-8.1,0-12.15,0c0.02-21.49,0.04-42.98,0.07-64.46
		c0-1.5,0.08-2.99,0.12-4.49c3.73-1.67,7.15-4,11.09-5.21C161.74,294.21,164.03,300.97,166.32,307.73z"/>
	<path class="st6" d="M196.12,361.62c-1.59-14.62-3.17-29.25-4.78-43.87c-0.37-3.35-0.81-6.68-1.22-10.02
		c2.29-6.76,4.58-13.52,6.87-20.28c3.93,1.23,7.37,3.52,11.08,5.21c0.04,20.36,0.09,40.72,0.13,61.09c0.01,2.62,0.04,5.25,0.06,7.87
		C204.23,361.62,200.17,361.62,196.12,361.62z"/>
	<path class="st1" d="M208.31,253.86c0,0.2-0.06,0.38-0.19,0.54c-6.07,3.49-11.09,8.36-16.51,12.68
		c-4.36,3.47-9.18,6.42-12.79,10.78c-0.39,0.01-0.78,0.02-1.17,0.03c-3.58-4.32-8.35-7.26-12.67-10.7
		c-5.48-4.36-10.55-9.26-16.66-12.81c-0.13-0.14-0.19-0.31-0.18-0.51c0.06-3.05,0.13-6.1,0.19-9.16c8.81,5.49,18.31,8.79,28.76,9.01
		c11.27,0.23,21.53-3.05,31.01-9.01C208.18,247.77,208.24,250.81,208.31,253.86z"/>
	<path class="st7" d="M208.11,244.72c-9.48,5.95-19.74,9.24-31.01,9.01c-10.46-0.21-19.95-3.51-28.76-9.01
		c-0.01-3.98-0.02-7.96-0.03-11.93c5.31,3,10.7,5.73,16.69,7.23c13.91,3.48,27.04,1.72,39.5-5.33c1.19-0.67,2.43-1.26,3.64-1.89
		C208.13,236.77,208.12,240.74,208.11,244.72z"/>
	<path class="st8" d="M40.29,361.57c0-7.62-0.03-15.24,0-22.87c0.02-4.47,2.22-7,5.99-7c3.77,0,5.97,2.53,5.99,7
		c0.03,7.62,0,15.24,0,22.87C48.27,361.57,44.28,361.57,40.29,361.57z"/>
	<path class="st8" d="M304.18,361.57c0-7.62-0.03-15.24,0-22.87c0.02-4.47,2.22-7,5.99-7c3.77,0,5.97,2.53,5.99,7
		c0.03,7.62,0,15.24,0,22.87C312.16,361.57,308.17,361.57,304.18,361.57z"/>
	<path class="st3" d="M147.46,254.38c-0.29,0.7-0.87,0.84-1.54,0.83C146.23,254.54,146.85,254.46,147.46,254.38z"/>
	<path class="st3" d="M210.52,255.2c-0.68,0.03-1.26-0.15-1.54-0.84C209.59,254.46,210.24,254.5,210.52,255.2z"/>
	<path class="st7" d="M166.23,166.76c0-3-0.08-5.99,0.02-8.99c0.13-3.63,2.44-5.93,5.83-6c3.54-0.08,5.99,2.3,6.12,6.09
		c0.1,2.87,0.18,5.75-0.03,8.61c-0.2,2.73,0.95,3.59,3.47,3.3c0.99-0.11,2-0.08,2.99,0c3.33,0.29,5.53,2.65,5.57,5.89
		c0.04,3.24-2.12,5.88-5.4,6.03c-4.36,0.19-8.74,0.18-13.1,0c-3.3-0.14-5.34-2.48-5.46-5.95
		C166.15,172.75,166.23,169.76,166.23,166.76z"/>
	<path class="st7" d="M177.97,205.75c-3.86,0-7.73,0.07-11.59-0.02c-3.81-0.09-6.19-2.51-6.15-6.04c0.04-3.53,2.41-5.87,6.28-5.91
		c7.85-0.07,15.7-0.08,23.54,0c3.8,0.04,6.18,2.51,6.15,6.04c-0.04,3.52-2.42,5.83-6.28,5.91
		C185.94,205.81,181.96,205.75,177.97,205.75z"/>
	<path class="st9" d="M151.25,121.78c2.99,0,5.98-0.11,8.96,0.03c3.54,0.16,5.95,2.63,6,5.89c0.04,3.26-2.35,5.93-5.85,6.02
		c-6.09,0.15-12.2,0.16-18.29,0c-3.49-0.09-5.87-2.8-5.8-6.05c0.06-3.27,2.47-5.7,6.03-5.85
		C145.27,121.68,148.26,121.78,151.25,121.78z"/>
	<path class="st9" d="M205.2,133.78c-2.86,0-5.73,0.07-8.59-0.02c-3.82-0.12-6.33-2.51-6.38-5.9c-0.05-3.4,2.44-5.98,6.2-6.05
		c5.85-0.11,11.7-0.11,17.55,0c3.75,0.07,6.25,2.67,6.19,6.06c-0.06,3.38-2.58,5.71-6.39,5.9c-0.12,0.01-0.25,0-0.37,0
		C210.68,133.78,207.94,133.78,205.2,133.78z"/>
	<path class="st10" d="M160.22,147.17c0.05,4.01-3.2,7.44-7.2,7.59c-4.17,0.16-7.71-3.22-7.76-7.39c-0.05-4.19,3.38-7.63,7.57-7.58
		C156.84,139.83,160.16,143.14,160.22,147.17z"/>
	<path class="st10" d="M203.66,154.75c-4.18-0.03-7.56-3.54-7.44-7.72c0.12-4.03,3.49-7.27,7.52-7.25c4.17,0.02,7.57,3.54,7.44,7.71
		C211.07,151.51,207.68,154.78,203.66,154.75z"/>
	<path class="st11" d="M148.32,254.38c6.1,3.55,11.18,8.45,16.66,12.81c4.32,3.44,9.09,6.38,12.67,10.7
		c-6.06,3.19-12.13,6.37-18.19,9.56c-3.94,1.21-7.36,3.54-11.09,5.21C148.35,279.91,148.33,267.14,148.32,254.38z"/>
	<path class="st11" d="M178.82,277.87c3.62-4.36,8.44-7.31,12.79-10.78c5.43-4.32,10.44-9.2,16.51-12.68
		c-0.01,12.75-0.03,25.51-0.04,38.26c-3.71-1.69-7.15-3.98-11.08-5.21C190.94,284.26,184.88,281.06,178.82,277.87z"/>
	<path class="st12" d="M178.82,277.87c6.06,3.2,12.12,6.39,18.18,9.59c-2.29,6.76-4.58,13.52-6.87,20.28c-7.94,0-15.87,0-23.81,0
		c-2.29-6.76-4.58-13.51-6.86-20.27c6.06-3.19,12.13-6.37,18.19-9.56C178.04,277.89,178.43,277.88,178.82,277.87z"/>
</g>
</svg>
